<svg width="20" height="20" viewBox="0 0 20 20" fill="none" xmlns="http://www.w3.org/2000/svg">
<path fill-rule="evenodd" clip-rule="evenodd" d="M13.5166 5.36983L9.99992 3.27817C9.48311 2.95399 9.1103 2.44398 8.95825 1.85317C8.95825 1.85317 9.09159 1.5865 9.27492 1.6865C9.45825 1.7865 12.1916 3.40317 13.6499 4.26983C14.1749 4.57817 13.8499 5.9365 13.8499 5.9365C13.8506 5.82077 13.82 5.70699 13.7613 5.60723C13.7027 5.50748 13.6181 5.42545 13.5166 5.36983Z" fill="#669DF6"/>
<path fill-rule="evenodd" clip-rule="evenodd" d="M14.5748 10.5698C14.5802 10.6235 14.5705 10.6776 14.547 10.7262C14.5235 10.7747 14.4869 10.8158 14.4414 10.8448L13.6081 11.4115V4.78646C13.6081 4.56146 13.7498 4.31979 13.5581 4.20312L14.3248 4.76979C14.4171 4.82601 14.4929 4.90583 14.5441 5.00104C14.5954 5.09625 14.6204 5.2034 14.6164 5.31146L14.5748 10.5698Z" fill="#AECBFA"/>
<path fill-rule="evenodd" clip-rule="evenodd" d="M9.99995 11.3282C9.94068 11.3284 9.88268 11.311 9.83328 11.2782L6.94995 9.56152V10.3115L9.99995 12.1282L10.2416 11.6532C10.2416 11.6532 10.0583 11.3282 9.99995 11.3282Z" fill="#669DF6"/>
<path fill-rule="evenodd" clip-rule="evenodd" d="M10.1666 12.827C10.1173 12.86 10.0593 12.8776 9.99995 12.8776C9.94062 12.8776 9.88262 12.86 9.83328 12.827L6.94995 11.1104V11.6604C6.95015 11.7183 6.96472 11.7752 6.99235 11.8261C7.01998 11.877 7.05982 11.9203 7.10828 11.952L9.84162 13.6187C9.88947 13.6473 9.94419 13.6624 9.99995 13.6624C10.0557 13.6624 10.1104 13.6473 10.1583 13.6187C10.2338 13.4827 10.2899 13.3369 10.325 13.1854L10.1666 12.8604V12.827Z" fill="#669DF6"/>
<path fill-rule="evenodd" clip-rule="evenodd" d="M9.99995 10.6053L13.05 8.78862V8.43028C13.0507 8.37332 13.0365 8.31716 13.0087 8.26743C12.9809 8.21771 12.9405 8.17616 12.8916 8.14695L10.1583 6.48028C10.1104 6.45165 10.0557 6.43652 9.99995 6.43652C9.94419 6.43652 9.88947 6.45165 9.84162 6.48028L7.10828 8.14695C7.06047 8.17734 7.02096 8.21915 6.99333 8.26861C6.96569 8.31807 6.95078 8.37363 6.94995 8.43028V8.78862L9.99995 10.6053Z" fill="#AECBFA"/>
<path fill-rule="evenodd" clip-rule="evenodd" d="M9.99995 9.84994L7.10828 8.1416C7.06047 8.172 7.02096 8.21381 6.99333 8.26327C6.96569 8.31273 6.95078 8.36828 6.94995 8.42494V8.78327L9.99995 10.5999L10.2333 10.1333L9.99995 9.84994Z" fill="#669DF6"/>
<path fill-rule="evenodd" clip-rule="evenodd" d="M10 11.3271V12.1604L13.05 10.3437V9.59375L10.1667 11.2771C10.1142 11.3026 10.0579 11.3195 10 11.3271Z" fill="#4285F4"/>
<path fill-rule="evenodd" clip-rule="evenodd" d="M10.1667 12.8281C10.1173 12.8609 10.0593 12.8783 10 12.8781C10 13.1115 10 13.6281 10 13.6281C10.0607 13.6271 10.1204 13.6129 10.175 13.5865L12.9083 11.9198C12.9585 11.8899 12.9997 11.847 13.0275 11.7957C13.0554 11.7444 13.0689 11.6865 13.0667 11.6281V11.0781L10.1667 12.8281Z" fill="#4285F4"/>
<path fill-rule="evenodd" clip-rule="evenodd" d="M12.8917 8.1416L10 9.84994V10.5999L13.05 8.78327V8.42494C13.0508 8.36797 13.0365 8.31182 13.0087 8.26209C12.9809 8.21236 12.9406 8.17081 12.8917 8.1416Z" fill="#4285F4"/>
<path fill-rule="evenodd" clip-rule="evenodd" d="M6.48316 14.6037L9.94149 16.662C10.2143 16.8236 10.4502 17.0405 10.6339 17.2989C10.8177 17.5573 10.9452 17.8513 11.0082 18.162C11.0135 18.1913 11.01 18.2214 10.9982 18.2487C10.9864 18.276 10.9667 18.2991 10.9417 18.3152C10.9167 18.3312 10.8875 18.3395 10.8578 18.339C10.8281 18.3384 10.7992 18.329 10.7748 18.312L6.23316 15.6204C5.79149 15.3537 6.17483 14.0537 6.17483 14.0537C6.17453 14.1642 6.20276 14.2728 6.25678 14.3692C6.31079 14.4655 6.38877 14.5463 6.48316 14.6037Z" fill="#669DF6"/>
<path fill-rule="evenodd" clip-rule="evenodd" d="M5.4248 14.7724V9.30573C5.42699 9.2505 5.44253 9.19663 5.47011 9.14873C5.49769 9.10084 5.53647 9.06034 5.58314 9.03073L6.41647 8.53906V15.1307C6.41647 15.3557 6.41647 15.7057 6.59147 15.8224L5.70814 15.2724C5.62435 15.2178 5.5549 15.1439 5.50559 15.0569C5.45629 14.9699 5.42859 14.8723 5.4248 14.7724Z" fill="#AECBFA"/>
<path fill-rule="evenodd" clip-rule="evenodd" d="M8.46655 4.54609C8.37253 4.49277 8.2663 4.46474 8.15822 4.46474C8.05013 4.46474 7.9439 4.49277 7.84988 4.54609L4.34988 6.66275C4.09125 6.81577 3.80392 6.91397 3.50574 6.95124C3.20755 6.98851 2.90489 6.96407 2.61655 6.87942C2.58709 6.86269 2.56259 6.83845 2.54555 6.80918C2.52851 6.7799 2.51953 6.74663 2.51953 6.71275C2.51953 6.67888 2.52851 6.64561 2.54555 6.61633C2.56259 6.58705 2.58709 6.56282 2.61655 6.54609C2.76655 6.47109 7.88322 3.42942 7.88322 3.42942C8.07488 3.31275 8.49988 4.58775 8.49988 4.58775L8.46655 4.54609Z" fill="#669DF6"/>
<path fill-rule="evenodd" clip-rule="evenodd" d="M8.4583 3.39719L12.8916 6.02219C12.9396 6.04691 12.9802 6.08377 13.0095 6.1291C13.0387 6.17444 13.0555 6.22665 13.0583 6.28052V7.26386L7.49997 3.96386C7.40595 3.91054 7.29972 3.88251 7.19163 3.88251C7.08355 3.88251 6.97732 3.91054 6.8833 3.96386L7.86663 3.38886C7.95853 3.33378 8.06366 3.30469 8.1708 3.30469C8.27794 3.30469 8.38307 3.33378 8.47497 3.38886L8.4583 3.39719Z" fill="#AECBFA"/>
<path fill-rule="evenodd" clip-rule="evenodd" d="M11.5165 15.4026C11.6099 15.4576 11.7164 15.4865 11.8248 15.4865C11.9332 15.4865 12.0397 15.4576 12.1331 15.4026L15.6331 13.3276C15.8945 13.1736 16.185 13.0756 16.4863 13.0398C16.7875 13.0039 17.0929 13.031 17.3831 13.1193C17.4132 13.1334 17.4386 13.1558 17.4563 13.1838C17.4741 13.2119 17.4836 13.2444 17.4836 13.2776C17.4836 13.3108 17.4741 13.3433 17.4563 13.3714C17.4386 13.3994 17.4132 13.4218 17.3831 13.4359L12.1081 16.5609C11.9248 16.6776 11.4915 15.3943 11.4915 15.3943L11.5165 15.4026Z" fill="#669DF6"/>
<path fill-rule="evenodd" clip-rule="evenodd" d="M7.09162 13.9536C7.0145 13.8807 6.96453 13.7837 6.94995 13.6786V12.7119L12.5 15.9869C12.5912 16.0438 12.6966 16.074 12.8041 16.074C12.9117 16.074 13.017 16.0438 13.1083 15.9869L12.125 16.5702C12.0324 16.6279 11.9256 16.6584 11.8166 16.6584C11.7076 16.6584 11.6008 16.6279 11.5083 16.5702L7.09162 13.9536Z" fill="#AECBFA"/>
<path fill-rule="evenodd" clip-rule="evenodd" d="M5.21644 8.16829C5.1227 8.22433 5.04505 8.30366 4.99103 8.39857C4.937 8.49348 4.90844 8.60074 4.90811 8.70995V12.8766C4.90731 13.1892 4.84258 13.4983 4.7179 13.7849C4.59322 14.0715 4.41122 14.3296 4.18311 14.5433C4.16174 14.5624 4.13535 14.575 4.10705 14.5796C4.07875 14.5842 4.04973 14.5805 4.02343 14.5692C3.99712 14.5578 3.97463 14.5391 3.95863 14.5153C3.94262 14.4915 3.93376 14.4636 3.93311 14.435V8.13495C3.93311 7.90162 5.21644 8.13495 5.21644 8.13495V8.16829Z" fill="#669DF6"/>
<path fill-rule="evenodd" clip-rule="evenodd" d="M8.14159 5.43066C8.18658 5.40258 8.23855 5.3877 8.29159 5.3877C8.34462 5.3877 8.39659 5.40258 8.44159 5.43066L9.27492 5.92233L4.20825 8.88899C4.11386 8.94637 4.03589 9.02715 3.98187 9.12351C3.92785 9.21986 3.89963 9.32853 3.89992 9.43899V8.28066C3.89911 8.17135 3.92818 8.06389 3.98399 7.9699C4.0398 7.8759 4.12023 7.79894 4.21659 7.74733L8.14159 5.43066Z" fill="#AECBFA"/>
<path fill-rule="evenodd" clip-rule="evenodd" d="M15.1416 11.1972V7.03051C15.1421 6.72018 15.2042 6.41303 15.3243 6.12691C15.4445 5.84079 15.6203 5.58141 15.8416 5.36385C15.8416 5.36385 16.1166 5.27218 16.1 5.53885C16.0833 5.80551 16.1 11.6805 16.1 11.6805C15.8416 11.9888 14.7583 11.6805 14.7583 11.6805C14.856 11.6362 14.9417 11.5693 15.0084 11.4852C15.0751 11.4011 15.1207 11.3024 15.1416 11.1972Z" fill="#669DF6"/>
<path fill-rule="evenodd" clip-rule="evenodd" d="M15.8331 12.1683L11.8831 14.5433C11.8369 14.5721 11.7835 14.5874 11.729 14.5874C11.6745 14.5874 11.6211 14.5721 11.5748 14.5433L10.7415 14.0683L15.8331 11.01C15.9275 10.9526 16.0055 10.8718 16.0595 10.7754C16.1135 10.6791 16.1417 10.5704 16.1415 10.46V11.66C16.1248 11.8516 15.8331 12.1683 15.8331 12.1683Z" fill="#AECBFA"/>
</svg>
