<svg width="20" height="20" viewBox="0 0 20 20" fill="none" xmlns="http://www.w3.org/2000/svg">
<path d="M18.3334 3.33594H1.66675V9.16927H18.3334V3.33594Z" fill="#AECBFA"/>
<path d="M18.3334 3.33594H16.6667V9.16927H18.3334V3.33594Z" fill="#669DF6"/>
<path d="M18.3334 3.33594H16.6667V9.16927L18.3334 3.33594Z" fill="#4285F4"/>
<path d="M3.33341 3.33594H1.66675V9.16927H3.33341V3.33594Z" fill="#669DF6"/>
<path d="M10 5.83594H5V6.66927H10V5.83594Z" fill="white"/>
<path d="M15 6.25293C15 5.56257 14.4404 5.00293 13.75 5.00293C13.0596 5.00293 12.5 5.56257 12.5 6.25293C12.5 6.94329 13.0596 7.50293 13.75 7.50293C14.4404 7.50293 15 6.94329 15 6.25293Z" fill="white"/>
<path d="M18.3334 10.8359H1.66675V16.6693H18.3334V10.8359Z" fill="#AECBFA"/>
<path d="M18.3334 10.8359H16.6667V16.6693H18.3334V10.8359Z" fill="#669DF6"/>
<path d="M18.3334 10.8359H16.6667V16.6693L18.3334 10.8359Z" fill="#4285F4"/>
<path d="M3.33341 10.8359H1.66675V16.6693H3.33341V10.8359Z" fill="#669DF6"/>
<path d="M10 13.3359H5V14.1693H10V13.3359Z" fill="white"/>
<path d="M15 13.7529C15 13.0626 14.4404 12.5029 13.75 12.5029C13.0596 12.5029 12.5 13.0626 12.5 13.7529C12.5 14.4433 13.0596 15.0029 13.75 15.0029C14.4404 15.0029 15 14.4433 15 13.7529Z" fill="white"/>
</svg>
