<svg xmlns="http://www.w3.org/2000/svg" width="18" height="18" viewBox="0 0 18 18" fill="none">
<path fill-rule="evenodd" clip-rule="evenodd" d="M4 11C4.53043 11 5.03914 10.7893 5.41421 10.4142C5.78929 10.0391 6 9.53043 6 9C6 8.46957 5.78929 7.96086 5.41421 7.58579C5.03914 7.21071 4.53043 7 4 7C3.46957 7 2.96086 7.21071 2.58579 7.58579C2.21071 7.96086 2 8.46957 2 9C2 9.53043 2.21071 10.0391 2.58579 10.4142C2.96086 10.7893 3.46957 11 4 11ZM14 11C14.5304 11 15.0391 10.7893 15.4142 10.4142C15.7893 10.0391 16 9.53043 16 9C16 8.46957 15.7893 7.96086 15.4142 7.58579C15.0391 7.21071 14.5304 7 14 7C13.4696 7 12.9609 7.21071 12.5858 7.58579C12.2107 7.96086 12 8.46957 12 9C12 9.53043 12.2107 10.0391 12.5858 10.4142C12.9609 10.7893 13.4696 11 14 11ZM9 6C9.53043 6 10.0391 5.78929 10.4142 5.41421C10.7893 5.03914 11 4.53043 11 4C11 3.46957 10.7893 2.96086 10.4142 2.58579C10.0391 2.21071 9.53043 2 9 2C8.46957 2 7.96086 2.21071 7.58579 2.58579C7.21071 2.96086 7 3.46957 7 4C7 4.53043 7.21071 5.03914 7.58579 5.41421C7.96086 5.78929 8.46957 6 9 6ZM9 16C9.53043 16 10.0391 15.7893 10.4142 15.4142C10.7893 15.0391 11 14.5304 11 14C11 13.4696 10.7893 12.9609 10.4142 12.5858C10.0391 12.2107 9.53043 12 9 12C8.46957 12 7.96086 12.2107 7.58579 12.5858C7.21071 12.9609 7 13.4696 7 14C7 14.5304 7.21071 15.0391 7.58579 15.4142C7.96086 15.7893 8.46957 16 9 16ZM9 10.5C9.39782 10.5 9.77936 10.342 10.0607 10.0607C10.342 9.77936 10.5 9.39782 10.5 9C10.5 8.60218 10.342 8.22064 10.0607 7.93934C9.77936 7.65804 9.39782 7.5 9 7.5C8.60218 7.5 8.22064 7.65804 7.93934 7.93934C7.65804 8.22064 7.5 8.60218 7.5 9C7.5 9.39782 7.65804 9.77936 7.93934 10.0607C8.22064 10.342 8.60218 10.5 9 10.5ZM5 6C5.26522 6 5.51957 5.89464 5.70711 5.70711C5.89464 5.51957 6 5.26522 6 5C6 4.73478 5.89464 4.48043 5.70711 4.29289C5.51957 4.10536 5.26522 4 5 4C4.73478 4 4.48043 4.10536 4.29289 4.29289C4.10536 4.48043 4 4.73478 4 5C4 5.26522 4.10536 5.51957 4.29289 5.70711C4.48043 5.89464 4.73478 6 5 6ZM5 14C5.26522 14 5.51957 13.8946 5.70711 13.7071C5.89464 13.5196 6 13.2652 6 13C6 12.7348 5.89464 12.4804 5.70711 12.2929C5.51957 12.1054 5.26522 12 5 12C4.73478 12 4.48043 12.1054 4.29289 12.2929C4.10536 12.4804 4 12.7348 4 13C4 13.2652 4.10536 13.5196 4.29289 13.7071C4.48043 13.8946 4.73478 14 5 14ZM13 6C13.2652 6 13.5196 5.89464 13.7071 5.70711C13.8946 5.51957 14 5.26522 14 5C14 4.73478 13.8946 4.48043 13.7071 4.29289C13.5196 4.10536 13.2652 4 13 4C12.7348 4 12.4804 4.10536 12.2929 4.29289C12.1054 4.48043 12 4.73478 12 5C12 5.26522 12.1054 5.51957 12.2929 5.70711C12.4804 5.89464 12.7348 6 13 6ZM13 14C13.2652 14 13.5196 13.8946 13.7071 13.7071C13.8946 13.5196 14 13.2652 14 13C14 12.7348 13.8946 12.4804 13.7071 12.2929C13.5196 12.1054 13.2652 12 13 12C12.7348 12 12.4804 12.1054 12.2929 12.2929C12.1054 12.4804 12 12.7348 12 13C12 13.2652 12.1054 13.5196 12.2929 13.7071C12.4804 13.8946 12.7348 14 13 14Z" fill="#4285f4"/>
</svg>