<svg xmlns="http://www.w3.org/2000/svg" width="18" height="18" viewBox="0 0 18 18" fill="none">
<path fill-rule="evenodd" clip-rule="evenodd" d="M1 8H6V10H1V8ZM12 8H17V10H12V8Z" fill="#4285f4"/>
<path d="M8 11.5C9.38071 11.5 10.5 10.3807 10.5 9C10.5 7.61929 9.38071 6.5 8 6.5C6.61929 6.5 5.5 7.61929 5.5 9C5.5 10.3807 6.61929 11.5 8 11.5Z" fill="#4285f4"/>
<path fill-rule="evenodd" clip-rule="evenodd" d="M4.51697 4.11391C5.41415 3.47469 6.46999 3.09481 7.56876 3.0159C8.66754 2.93699 9.76683 3.16211 10.7461 3.66657C11.7254 4.17103 12.547 4.93536 13.1207 5.87579C13.6944 6.81621 13.9981 7.89643 13.9985 8.99804C13.999 10.0996 13.6962 11.1801 13.1232 12.121C12.5503 13.0619 11.7294 13.8269 10.7505 14.3322C9.7716 14.8374 8.6725 15.0634 7.57366 14.9854C6.47482 14.9074 5.41867 14.5284 4.52097 13.8899L5.69097 12.2599C6.28925 12.6859 6.99326 12.9389 7.72582 12.9912C8.45837 13.0436 9.19121 12.8932 9.84398 12.5567C10.4967 12.2201 11.0443 11.7103 11.4265 11.0832C11.8087 10.4561 12.0109 9.73584 12.0109 9.00141C12.0109 8.26699 11.8087 7.54674 11.4265 6.91962C11.0443 6.29249 10.4967 5.78271 9.84398 5.44615C9.19121 5.10959 8.45837 4.95924 7.72582 5.01159C6.99326 5.06393 6.28925 5.31696 5.69097 5.74291L4.53097 4.11291L4.51697 4.11391Z" fill="#4285f4"/>
</svg>