<svg width="24" height="24" viewBox="0 0 24 24" fill="none" xmlns="http://www.w3.org/2000/svg">
<g clip-path="url(#clip0_5015_17155)">
<path d="M3.71212 6.1125C4.62319 6.1125 5.36175 5.37377 5.36175 4.4625C5.36175 3.55123 4.62319 2.8125 3.71212 2.8125C2.80106 2.8125 2.0625 3.55123 2.0625 4.4625C2.0625 5.37377 2.80106 6.1125 3.71212 6.1125Z" fill="#185ABC"/>
<path d="M3.71212 13.5923C4.62319 13.5923 5.36175 12.8535 5.36175 11.9423C5.36175 11.031 4.62319 10.2923 3.71212 10.2923C2.80106 10.2923 2.0625 11.031 2.0625 11.9423C2.0625 12.8535 2.80106 13.5923 3.71212 13.5923Z" fill="#185ABC"/>
<path d="M3.71212 21.072C4.62319 21.072 5.36175 20.3333 5.36175 19.422C5.36175 18.5107 4.62319 17.772 3.71212 17.772C2.80106 17.772 2.0625 18.5107 2.0625 19.422C2.0625 20.3333 2.80106 21.072 3.71212 21.072Z" fill="#185ABC"/>
<path d="M19.7567 14.0056C20.8958 14.0056 21.8192 13.0822 21.8192 11.9431C21.8192 10.804 20.8958 9.88063 19.7567 9.88063C18.6176 9.88063 17.6942 10.804 17.6942 11.9431C17.6942 13.0822 18.6176 14.0056 19.7567 14.0056Z" fill="#185ABC"/>
<path d="M6.95175 12.9328H10.4398C10.5773 12.6944 10.7265 12.4632 10.887 12.24L11.0957 11.9388C10.8771 11.6376 10.6684 11.3264 10.4597 10.9348H6.95175C7.02773 11.193 7.0744 11.4591 7.09088 11.728V12.1496C7.07524 12.4153 7.02854 12.6782 6.95175 12.9328Z" fill="#669DF6"/>
<path d="M13.5006 8.90676L13.272 8.49512L12.9938 8.03328L12.5565 7.15981C11.3044 4.64982 10.0125 3.49522 7.40888 3.49522H6.95175C7.04564 3.82139 7.0925 4.15954 7.09088 4.49922C7.09278 4.83892 7.04592 5.1771 6.95175 5.50321H7.40888C9.01875 5.50321 9.72431 6.01525 10.6982 7.79232L10.9367 8.22404L11.1752 8.70596C12.6161 11.6175 13.6596 12.7219 16.0744 12.9629C15.9955 12.6342 15.9554 12.2972 15.9551 11.9589C15.9562 11.6194 16.003 11.2817 16.0943 10.9549H16.1539C14.9813 10.8445 14.3055 10.3324 13.5006 8.90676Z" fill="#185ABC"/>
<path d="M11.6721 14.2982L11.4336 14.75L11.0559 15.513L10.8174 15.9648L10.5889 16.3765C9.67463 17.9929 8.95913 18.4648 7.40888 18.4648H6.95175C7.02941 18.7226 7.07612 18.9889 7.09088 19.2579V19.6294C7.07528 19.8984 7.02859 20.1646 6.95175 20.4226H7.66725C10.0622 20.3523 11.3541 19.1877 12.636 16.768L13.1726 15.6938L13.3813 15.3022L13.5602 14.9709C13.7041 14.7201 13.8634 14.4786 14.0372 14.248C13.4206 14.0151 12.8489 13.6753 12.3478 13.244C12.0947 13.5764 11.8687 13.9289 11.6721 14.2982Z" fill="#669DF6"/>
</g>
<defs>
<clipPath id="clip0_5015_17155">
<rect width="24" height="24" fill="white"/>
</clipPath>
</defs>
</svg>
