<svg width="20" height="20" viewBox="0 0 20 20" fill="none" xmlns="http://www.w3.org/2000/svg">
<g clip-path="url(#clip0_3294_43610)">
<path fill-rule="evenodd" clip-rule="evenodd" d="M4.65695 9.03516V12.77L7.28456 10.9977C7.45129 11.4511 7.72754 11.8515 8.08124 12.167L5.36953 13.996L9.33277 16.4322L9.33276 12.8239C9.55294 12.8771 9.78288 12.9053 10.0194 12.9053C10.2709 12.9053 10.5149 12.8734 10.7477 12.8135L10.7477 16.4307L12.8445 15.1417L13.4978 16.2508L10.0391 18.2812L3.24219 14.2912V9.03516H4.65695ZM12.7488 11.0125L15.1059 12.6023C15.3632 12.4386 15.6685 12.3438 15.9961 12.3438C16.913 12.3438 17.6562 13.087 17.6562 14.0039C17.6562 14.9208 16.913 15.6641 15.9961 15.6641C15.0792 15.6641 14.3359 14.9208 14.3359 14.0039C14.3359 13.9342 14.3402 13.8656 14.3486 13.7982L11.9458 12.1775C12.3013 11.8638 12.5796 11.4648 12.7488 11.0125ZM15.9961 13.3398C15.6293 13.3398 15.332 13.6372 15.332 14.0039C15.332 14.3707 15.6293 14.668 15.9961 14.668C16.3628 14.668 16.6602 14.3707 16.6602 14.0039C16.6602 13.6372 16.3628 13.3398 15.9961 13.3398ZM10.0194 8.32772C10.9387 8.32772 11.684 9.07298 11.684 9.99229C11.684 10.9116 10.9387 11.6569 10.0194 11.6569C9.10009 11.6569 8.35484 10.9116 8.35484 9.99229C8.35484 9.07298 9.10009 8.32772 10.0194 8.32772ZM10.0391 1.71875L16.8359 5.70881V10.991H15.4209V7.21625L12.7624 9.00947C12.5994 8.55449 12.3264 8.15187 11.9754 7.83365L14.6977 5.99742L10.7477 3.5693L10.7477 7.17107C10.5149 7.11116 10.2709 7.07929 10.0194 7.07929C9.78288 7.07929 9.55294 7.10748 9.33276 7.16069L9.33277 3.56773L7.10004 4.9402L6.43547 3.83418L10.0391 1.71875ZM3.96484 4.33594C4.88172 4.33594 5.625 5.07921 5.625 5.99609C5.625 6.06482 5.62082 6.13257 5.61271 6.1991L8.05177 7.84426C7.7026 8.16428 7.4317 8.56831 7.27109 9.02434L4.85726 7.39624C4.59954 7.56085 4.29333 7.65625 3.96484 7.65625C3.04796 7.65625 2.30469 6.91297 2.30469 5.99609C2.30469 5.07921 3.04796 4.33594 3.96484 4.33594ZM3.96484 5.33203C3.59809 5.33203 3.30078 5.62934 3.30078 5.99609C3.30078 6.36285 3.59809 6.66016 3.96484 6.66016C4.3316 6.66016 4.62891 6.36285 4.62891 5.99609C4.62891 5.62934 4.3316 5.33203 3.96484 5.33203Z" fill="#4285F4"/>
</g>
<defs>
<clipPath id="clip0_3294_43610">
<rect width="20" height="20" fill="white"/>
</clipPath>
</defs>
</svg>
