<svg width="18" height="18" viewBox="0 0 18 18" fill="none" xmlns="http://www.w3.org/2000/svg">
<g opacity="1" clip-path="url(#clip0_5015_29817)">
<path d="M5.4 12.6H8.1V9.9H5.4V12.6ZM9.9 12.6H12.6V9.9H9.9V12.6ZM5.4 8.1H8.1V5.4H5.4V8.1ZM9.9 8.1H12.6V5.4H9.9V8.1ZM4.05 15.3C3.675 15.3 3.35625 15.1687 3.09375 14.9062C2.83125 14.6437 2.7 14.325 2.7 13.95V4.05C2.7 3.675 2.83125 3.35625 3.09375 3.09375C3.35625 2.83125 3.675 2.7 4.05 2.7H13.95C14.325 2.7 14.6438 2.83125 14.9063 3.09375C15.1688 3.35625 15.3 3.675 15.3 4.05V13.95C15.3 14.325 15.1688 14.6437 14.9063 14.9062C14.6438 15.1687 14.325 15.3 13.95 15.3H4.05ZM4.05 13.95H13.95V4.05H4.05V13.95ZM4.05 4.05V13.95V4.05Z" fill="#4285F4"/>
</g>
<defs>
<clipPath id="clip0_5015_29817">
<rect width="18" height="18" fill="white"/>
</clipPath>
</defs>
</svg>
