<svg width="18" height="18" viewBox="0 0 18 18" fill="none" xmlns="http://www.w3.org/2000/svg">
<g clip-path="url(#clip0_5408_123942)">
<path d="M9 14.7333C7.38889 14.7333 6.02778 14.4889 4.91667 14C3.81667 13.5111 3.26667 12.9111 3.26667 12.2V5.8C3.26667 5.1 3.82222 4.50555 4.93333 4.01667C6.05556 3.51667 7.41111 3.26667 9 3.26667C10.5778 3.26667 11.9278 3.51667 13.05 4.01667C14.1722 4.50555 14.7333 5.1 14.7333 5.8V12.2C14.7333 12.9111 14.1722 13.5111 13.05 14C11.9389 14.4889 10.5889 14.7333 9 14.7333ZM9 7C9.95556 7 10.8722 6.88333 11.75 6.65C12.6389 6.40556 13.1889 6.12222 13.4 5.8C13.1889 5.48889 12.6333 5.21111 11.7333 4.96667C10.8444 4.72222 9.93333 4.6 9 4.6C8.05556 4.6 7.13333 4.72222 6.23333 4.96667C5.34444 5.21111 4.8 5.48889 4.6 5.8C4.8 6.12222 5.33889 6.40556 6.21667 6.65C7.09444 6.88333 8.02222 7 9 7ZM9 10.1833C9.45556 10.1833 9.89444 10.1611 10.3167 10.1167C10.7389 10.0611 11.1333 9.98889 11.5 9.9C11.8778 9.81111 12.2222 9.69444 12.5333 9.55C12.8556 9.40556 13.1444 9.24444 13.4 9.06667V7.41667C13.1222 7.57222 12.8167 7.70556 12.4833 7.81667C12.1611 7.92778 11.8111 8.02222 11.4333 8.1C11.0667 8.17778 10.6778 8.23889 10.2667 8.28333C9.85556 8.31667 9.43333 8.33333 9 8.33333C8.55556 8.33333 8.12778 8.31667 7.71667 8.28333C7.30556 8.23889 6.91111 8.17778 6.53333 8.1C6.16667 8.02222 5.81667 7.92778 5.48333 7.81667C5.16111 7.69444 4.86667 7.56111 4.6 7.41667V9.06667C4.85556 9.24444 5.13889 9.40556 5.45 9.55C5.76111 9.69444 6.1 9.81111 6.46667 9.9C6.84444 9.98889 7.24444 10.0611 7.66667 10.1167C8.1 10.1611 8.54444 10.1833 9 10.1833ZM9 13.4C9.47778 13.4 9.96111 13.3667 10.45 13.3C10.9389 13.2222 11.3889 13.1278 11.8 13.0167C12.2222 12.8944 12.5778 12.7611 12.8667 12.6167C13.1556 12.4722 13.3333 12.3222 13.4 12.1667V10.6C13.1222 10.7556 12.8167 10.8944 12.4833 11.0167C12.1611 11.1278 11.8111 11.2222 11.4333 11.3C11.0667 11.3778 10.6778 11.4389 10.2667 11.4833C9.85556 11.5167 9.43333 11.5333 9 11.5333C8.55556 11.5333 8.12778 11.5167 7.71667 11.4833C7.30556 11.4389 6.91111 11.3778 6.53333 11.3C6.16667 11.2111 5.81667 11.1111 5.48333 11C5.16111 10.8778 4.86667 10.7444 4.6 10.6V12.2C4.66667 12.3444 4.84444 12.4889 5.13333 12.6333C5.42222 12.7778 5.77222 12.9056 6.18333 13.0167C6.60556 13.1278 7.06111 13.2222 7.55 13.3C8.05 13.3667 8.53333 13.4 9 13.4Z" fill="#4285F4"/>
</g>
<defs>
<clipPath id="clip0_5408_123942">
<rect width="18" height="18" fill="white"/>
</clipPath>
</defs>
</svg>
