<svg width="18" height="18" viewBox="0 0 18 18" fill="none" xmlns="http://www.w3.org/2000/svg">
<g clip-path="url(#clip0_5408_123912)">
<path d="M4.05 15.3L3.8625 14.5312C3.725 14.4812 3.6 14.425 3.4875 14.3625C3.375 14.2875 3.26875 14.2062 3.16875 14.1187L2.38125 14.3625L1.93125 13.575L2.5125 13.0312C2.4875 12.8812 2.475 12.7375 2.475 12.6C2.475 12.4625 2.4875 12.3312 2.5125 12.2062L1.93125 11.6625L2.38125 10.875L3.15 11.1C3.25 11 3.35625 10.9187 3.46875 10.8562C3.59375 10.7937 3.725 10.7375 3.8625 10.6875L4.05 9.9H4.95L5.1375 10.6875C5.2125 10.7125 5.28125 10.7375 5.34375 10.7625C5.40625 10.7875 5.4625 10.8187 5.5125 10.8562C5.575 10.8937 5.63125 10.9312 5.68125 10.9687C5.74375 11.0062 5.8 11.05 5.85 11.1L6.61875 10.875L7.06875 11.6625L6.50625 12.1875C6.53125 12.3625 6.5375 12.4562 6.525 12.4687C6.525 12.4687 6.525 12.4937 6.525 12.5437L10.125 11.2875L9.80625 11.8312L10.575 12.5437L6.91875 13.8375L6.61875 14.3437L5.85 14.1187C5.75 14.2187 5.6375 14.3 5.5125 14.3625C5.4 14.4125 5.275 14.4625 5.1375 14.5125L4.95 15.3H4.05ZM4.5 11.7C4.25 11.7 4.0375 11.7875 3.8625 11.9625C3.6875 12.1375 3.6 12.35 3.6 12.6C3.6 12.85 3.6875 13.0625 3.8625 13.2375C4.0375 13.4125 4.25 13.5 4.5 13.5C4.75 13.5 4.9625 13.4125 5.1375 13.2375C5.3125 13.0625 5.4 12.85 5.4 12.6C5.4 12.35 5.3125 12.1375 5.1375 11.9625C4.9625 11.7875 4.75 11.7 4.5 11.7ZM7.65 7.2L7.4625 6.4125C7.425 6.4 7.38125 6.3875 7.33125 6.375C7.29375 6.35 7.25 6.325 7.2 6.3V9.69375L6.525 9.9375L5.85 10.1625V6.01875L5.53125 5.475L6.1125 4.9125C6.0875 4.7625 6.075 4.61875 6.075 4.48125C6.075 4.34375 6.0875 4.2125 6.1125 4.0875L5.53125 3.5625L5.98125 2.775L6.75 3C6.85 2.9125 6.95625 2.8375 7.06875 2.775C7.19375 2.7 7.325 2.6375 7.4625 2.5875L7.65 1.8H8.55L8.7375 2.5875C8.875 2.6375 9 2.69375 9.1125 2.75625C9.2375 2.81875 9.35 2.9 9.45 3L10.2188 2.75625L10.6688 3.54375L10.0875 4.06875C10.1125 4.20625 10.125 4.35 10.125 4.5C10.125 4.6375 10.1125 4.775 10.0875 4.9125L10.6688 5.45625L10.2188 6.24375L9.45 6.01875C9.35 6.11875 9.2375 6.2 9.1125 6.2625C9 6.3125 8.875 6.3625 8.7375 6.4125L8.55 7.2H7.65ZM8.1 3.6C7.85 3.6 7.6375 3.6875 7.4625 3.8625C7.2875 4.0375 7.2 4.25 7.2 4.5C7.2 4.75 7.2875 4.9625 7.4625 5.1375C7.6375 5.3125 7.85 5.4 8.1 5.4C8.35 5.4 8.5625 5.3125 8.7375 5.1375C8.9125 4.9625 9 4.75 9 4.5C9 4.25 8.9125 4.0375 8.7375 3.8625C8.5625 3.6875 8.35 3.6 8.1 3.6ZM13.05 15.3187L12.8625 14.5312C12.725 14.4812 12.6 14.425 12.4875 14.3625C12.375 14.2875 12.2688 14.2062 12.1688 14.1187L11.3813 14.3625L10.9313 13.575L11.5125 13.0312C11.4875 12.8812 11.475 12.7375 11.475 12.6C11.475 12.4625 11.4875 12.3312 11.5125 12.2062L10.9313 11.6625L11.3813 10.875L12.15 11.1C12.2 11.05 12.2563 11.0062 12.3188 10.9687C12.3813 10.9312 12.4438 10.8937 12.5063 10.8562L9.24375 8.1375L9.4125 7.40625L9.6 6.675L13.4813 9.9H13.95L14.1375 10.6875C14.2125 10.7125 14.2813 10.7375 14.3438 10.7625C14.4063 10.7875 14.4625 10.8187 14.5125 10.8562C14.575 10.8937 14.6313 10.9312 14.6813 10.9687C14.7438 11.0062 14.8 11.05 14.85 11.1L15.6188 10.875L16.0688 11.6625L15.4875 12.1875C15.5125 12.325 15.525 12.4687 15.525 12.6187C15.525 12.7562 15.5125 12.8937 15.4875 13.0312L16.0688 13.575L15.6188 14.3625L14.85 14.1375C14.75 14.2375 14.6375 14.3187 14.5125 14.3812C14.4 14.4312 14.275 14.4812 14.1375 14.5312L13.95 15.3187H13.05ZM13.5 11.7C13.25 11.7 13.0375 11.7875 12.8625 11.9625C12.6875 12.1375 12.6 12.35 12.6 12.6C12.6 12.85 12.6875 13.0625 12.8625 13.2375C13.0375 13.4125 13.25 13.5 13.5 13.5C13.75 13.5 13.9625 13.4125 14.1375 13.2375C14.3125 13.0625 14.4 12.85 14.4 12.6C14.4 12.35 14.3125 12.1375 14.1375 11.9625C13.9625 11.7875 13.75 11.7 13.5 11.7Z" fill="#4285F4"/>
</g>
<defs>
<clipPath id="clip0_5408_123912">
<rect width="18" height="18" fill="white"/>
</clipPath>
</defs>
</svg>
