<svg xmlns="http://www.w3.org/2000/svg" width="18" height="18" viewBox="0 0 18 18" fill="none">
<path fill-rule="evenodd" clip-rule="evenodd" d="M12 10.9998H10V14.9928C10 15.5498 10.003 15.9998 10.003 15.9998H11.003L12.003 14.9998H13.998L14.998 15.9998H15.998L16 9.00284C16 8.45284 15.55 8.00684 15.01 8.00684H13V9.99984C13.1978 9.99984 13.3911 10.0585 13.5556 10.1684C13.72 10.2782 13.8482 10.4344 13.9239 10.6172C13.9996 10.7999 14.0194 11.0009 13.9808 11.1949C13.9422 11.3889 13.847 11.5671 13.7071 11.7069C13.5673 11.8468 13.3891 11.942 13.1951 11.9806C13.0011 12.0192 12.8001 11.9994 12.6173 11.9237C12.4346 11.848 12.2784 11.7199 12.1685 11.5554C12.0587 11.391 12 11.1976 12 10.9998ZM5.00001 9.99984V8.00684H2.99001C2.7262 8.00842 2.4738 8.11461 2.28819 8.30209C2.10259 8.48957 1.99894 8.74302 2.00001 9.00684V14.9928C2.00001 15.5498 2.00201 15.9998 2.00201 15.9998H3.00201L4.00201 14.9998H5.99801L6.99801 15.9998H7.99801V10.9998H6.00001C6.00001 11.1976 5.94136 11.391 5.83148 11.5554C5.7216 11.7199 5.56542 11.848 5.38269 11.9237C5.19997 11.9994 4.9989 12.0192 4.80492 11.9806C4.61094 11.942 4.43275 11.8468 4.2929 11.7069C4.15305 11.5671 4.05781 11.3889 4.01922 11.1949C3.98064 11.0009 4.00044 10.7999 4.07613 10.6172C4.15182 10.4344 4.27999 10.2782 4.44444 10.1684C4.60889 10.0585 4.80223 9.99984 5.00001 9.99984ZM11.998 9.99984L12 3.00284C12 2.45284 11.55 2.00684 11.01 2.00684H6.99001C6.7262 2.00842 6.4738 2.11461 6.28819 2.30209C6.10259 2.48957 5.99894 2.74302 6.00001 3.00684V8.99284C6.00001 9.54984 6.00201 9.99984 6.00201 9.99984H7.00201L8.00201 8.99984H9.99801L10.998 9.99984H11.998ZM9.00001 5.99984C9.26522 5.99984 9.51958 5.89448 9.70711 5.70694C9.89465 5.51941 10 5.26505 10 4.99984C10 4.73462 9.89465 4.48027 9.70711 4.29273C9.51958 4.10519 9.26522 3.99984 9.00001 3.99984C8.73479 3.99984 8.48044 4.10519 8.2929 4.29273C8.10537 4.48027 8.00001 4.73462 8.00001 4.99984C8.00001 5.26505 8.10537 5.51941 8.2929 5.70694C8.48044 5.89448 8.73479 5.99984 9.00001 5.99984Z" fill="#4285f4"/>
</svg>