<svg xmlns="http://www.w3.org/2000/svg" width="18" height="18" viewBox="0 0 18 18" fill="none">
<path fill-rule="evenodd" clip-rule="evenodd" d="M10.03 2.41499L14.03 4.81599C14.326 4.99381 14.5709 5.24522 14.7408 5.54576C14.9108 5.84629 15.0001 6.18571 15 6.53099V11.469C15.0001 11.8143 14.9108 12.1537 14.7408 12.4542C14.5709 12.7548 14.326 13.0062 14.03 13.184L10.03 15.584C9.71894 15.7709 9.36289 15.8696 9 15.8696C8.63711 15.8696 8.28106 15.7709 7.97 15.584L3.97 13.184C3.67403 13.0062 3.42914 12.7548 3.25916 12.4542C3.08918 12.1537 2.99989 11.8143 3 11.469V6.53099C2.99989 6.18571 3.08918 5.84629 3.25916 5.54576C3.42914 5.24522 3.67403 4.99381 3.97 4.81599L7.97 2.41599C8.28106 2.2291 8.63711 2.13037 9 2.13037C9.36289 2.13037 9.71894 2.2281 10.03 2.41499ZM12.973 9.63999C12.9707 9.64164 12.9683 9.64331 12.966 9.64499L9.076 11.926L5.168 9.64399C5.09491 9.6013 5.01408 9.57352 4.93018 9.56228C4.84628 9.55104 4.76099 9.55656 4.67924 9.57851C4.59749 9.60046 4.5209 9.6384 4.45392 9.69015C4.38693 9.7419 4.33088 9.80643 4.289 9.87999C4.129 10.16 4.199 10.51 4.441 10.709L4.527 10.769L9.067 13.432L9.207 13.349L10.351 12.678L13.606 10.769C13.7547 10.6817 13.863 10.5394 13.9075 10.3728C13.9521 10.2062 13.9292 10.0289 13.844 9.87899C13.7603 9.73193 13.6217 9.62414 13.4585 9.57932C13.2953 9.5345 13.1211 9.55632 12.974 9.63999H12.973ZM12.973 6.45499C12.9707 6.45631 12.9683 6.45764 12.966 6.45899L9.076 8.73999L5.167 6.45799C5.09391 6.4153 5.01308 6.38752 4.92918 6.37628C4.84528 6.36504 4.75999 6.37056 4.67824 6.39251C4.59649 6.41446 4.5199 6.4524 4.45292 6.50415C4.38593 6.5559 4.32988 6.62043 4.288 6.69399C4.128 6.97399 4.198 7.32399 4.44 7.52399L4.526 7.58399L9.066 10.247L9.206 10.164L10.35 9.49199L13.605 7.58399C13.7537 7.49668 13.862 7.35435 13.9065 7.1878C13.9511 7.02124 13.9282 6.84385 13.843 6.69399C13.8016 6.62109 13.7463 6.55705 13.6802 6.50554C13.6141 6.45402 13.5385 6.41603 13.4577 6.39374C13.3769 6.37146 13.2925 6.36531 13.2094 6.37564C13.1262 6.38598 13.0459 6.4136 12.973 6.45499Z" fill="#4285f4"/>
</svg>