<svg xmlns="http://www.w3.org/2000/svg" width="18" height="18" viewBox="0 0 18 18" fill="none">
<g opacity="1" clip-path="url(#clip0_5015_29847)">
<path d="M3.85 13.9333C3.47222 13.9333 3.14444 13.8 2.86667 13.5333C2.6 13.2556 2.46667 12.9278 2.46667 12.55V6.25C2.46667 5.87222 2.6 5.55 2.86667 5.28333C3.14444 5.00555 3.47222 4.86667 3.85 4.86667H7.41667L8.21667 4.06667H14.15C14.5278 4.06667 14.85 4.20555 15.1167 4.48333C15.3944 4.75 15.5333 5.07222 15.5333 5.45V12.55C15.5333 12.9278 15.3944 13.2556 15.1167 13.5333C14.85 13.8 14.5278 13.9333 14.15 13.9333H3.85ZM4.88333 9.35H7.75V6.48333L4.88333 9.35ZM3.85 8.43333L6.03333 6.25H3.85V8.43333ZM3.85 10.7333V12.55H14.15V5.45H9.13333V9.35C9.13333 9.72778 9 10.0556 8.73333 10.3333C8.46667 10.6 8.13889 10.7333 7.75 10.7333H3.85Z" fill="#4285f4"/>
</g>
<defs fill="#4285f4">
<clipPath id="clip0_5015_29847" fill="#4285f4">
<rect width="18" height="18" fill="#4285f4"/>
</clipPath>
</defs>
</svg>