<svg xmlns="http://www.w3.org/2000/svg" width="18" height="18" viewBox="0 0 18 18" fill="none">
<path fill-rule="evenodd" clip-rule="evenodd" d="M9.00002 5.00002V4.00202C9.00002 3.45602 8.55002 3.00002 7.99702 3.00002H3.00302C2.87113 2.9991 2.74037 3.02437 2.61832 3.07438C2.49628 3.1244 2.38538 3.19815 2.29207 3.29137C2.19876 3.38459 2.1249 3.49541 2.07476 3.6174C2.02463 3.7394 1.99922 3.87013 2.00002 4.00202V13.998C2.00108 14.2643 2.10767 14.5193 2.29643 14.7071C2.4852 14.895 2.74073 15.0003 3.00702 15H14.993C15.1245 15.0009 15.2549 14.9759 15.3767 14.9264C15.4985 14.8769 15.6094 14.8038 15.7029 14.7114C15.7964 14.619 15.8708 14.509 15.9218 14.3878C15.9728 14.2666 15.9994 14.1365 16 14.005V5.99502C16 5.45502 15.55 5.00002 14.993 5.00002H9.00002Z" fill="#4285f4"/>
</svg>