<svg width="18" height="18" viewBox="0 0 18 18" fill="none" xmlns="http://www.w3.org/2000/svg">
<g clip-path="url(#clip0_5408_123924)">
<path d="M7.33333 13.1V11.8H8.55L10.25 9.8L8.55 7.81667H7.6L6.55 13.1667C6.45 13.6333 6.22778 14.0111 5.88333 14.3C5.55 14.5889 5.17778 14.7333 4.76667 14.7333C4.3 14.7333 3.90556 14.5778 3.58333 14.2667C3.27222 13.9556 3.11667 13.5944 3.11667 13.1833C3.11667 12.9056 3.2 12.6722 3.36667 12.4833C3.53333 12.2944 3.75 12.2 4.01667 12.2C4.26111 12.2 4.45556 12.2778 4.6 12.4333C4.75556 12.5778 4.83333 12.7667 4.83333 13C4.83333 13.0667 4.82778 13.1389 4.81667 13.2167C4.80556 13.2833 4.78333 13.3556 4.75 13.4333C4.77222 13.4444 4.78889 13.45 4.8 13.45C4.81111 13.45 4.82778 13.45 4.85 13.45C4.96111 13.45 5.04444 13.4111 5.1 13.3333C5.16667 13.2556 5.21111 13.1444 5.23333 13L6.28333 7.81667H4.78333V6.51667H6.53333L6.88333 4.86667C6.98333 4.37778 7.2 3.98889 7.53333 3.7C7.86667 3.41111 8.24444 3.26667 8.66667 3.26667C9.13333 3.26667 9.52222 3.42222 9.83333 3.73333C10.1556 4.03333 10.3167 4.38889 10.3167 4.8C10.3167 5.07778 10.2333 5.31111 10.0667 5.5C9.9 5.68889 9.68333 5.78333 9.41667 5.78333C9.17222 5.78333 8.97222 5.71111 8.81667 5.56667C8.67222 5.41111 8.6 5.21667 8.6 4.98333C8.6 4.92778 8.60556 4.86111 8.61667 4.78333C8.62778 4.70555 8.65 4.63333 8.68333 4.56667C8.66111 4.55555 8.64444 4.55 8.63333 4.55C8.62222 4.55 8.60556 4.55 8.58333 4.55C8.47222 4.53889 8.38333 4.57222 8.31667 4.65C8.26111 4.72778 8.21667 4.83889 8.18333 4.98333L7.86667 6.51667H10.7167V7.81667H10.25L11.1 8.83333L11.9667 7.81667H11.4833V6.51667H14.8667V7.81667H13.6667L11.95 9.8L13.6667 11.8H14.8667V13.1H11.4833V11.8H11.9667L11.1 10.7833L10.2333 11.8H10.7167V13.1H7.33333Z" fill="#4285F4"/>
</g>
<defs>
<clipPath id="clip0_5408_123924">
<rect width="18" height="18" fill="white"/>
</clipPath>
</defs>
</svg>
