<svg width="18" height="18" viewBox="0 0 18 18" fill="none" xmlns="http://www.w3.org/2000/svg">
<g clip-path="url(#clip0_5408_123956)">
<path d="M10.4 7.51667V6.25C10.7444 6.13889 11.1 6.06111 11.4667 6.01667C11.8333 5.96111 12.2111 5.93333 12.6 5.93333C12.8556 5.93333 13.1111 5.95 13.3667 5.98333C13.6333 6.00556 13.9111 6.04444 14.2 6.1V7.33333C13.8667 7.25556 13.5722 7.2 13.3167 7.16667C13.0611 7.13333 12.8222 7.11667 12.6 7.11667C12.2222 7.11667 11.85 7.15 11.4833 7.21667C11.1167 7.28333 10.7556 7.38333 10.4 7.51667ZM10.4 11.45V10.1833C10.7111 10.0833 11.0444 10.0056 11.4 9.95C11.7556 9.88333 12.1556 9.85 12.6 9.85C12.9 9.85 13.1778 9.86667 13.4333 9.9C13.7 9.93333 13.9556 9.97778 14.2 10.0333V11.2667C13.8667 11.1889 13.5722 11.1333 13.3167 11.1C13.0611 11.0667 12.8222 11.05 12.6 11.05C12.2222 11.05 11.85 11.0833 11.4833 11.15C11.1167 11.2167 10.7556 11.3167 10.4 11.45ZM10.4 9.48333V8.21667C10.7556 8.10555 11.1167 8.02222 11.4833 7.96667C11.8611 7.91111 12.2333 7.88333 12.6 7.88333C12.9 7.88333 13.1778 7.9 13.4333 7.93333C13.7 7.96667 13.9556 8.01111 14.2 8.06667V9.3C13.9111 9.22222 13.6333 9.16667 13.3667 9.13333C13.1111 9.1 12.8556 9.08333 12.6 9.08333C12.2444 9.08333 11.8833 9.11667 11.5167 9.18333C11.1611 9.25 10.7889 9.35 10.4 9.48333ZM5.4 12.35C5.92222 12.35 6.43333 12.4167 6.93333 12.55C7.43333 12.6833 7.92222 12.85 8.4 13.05V5.48333C7.93333 5.23889 7.45 5.05555 6.95 4.93333C6.45 4.81111 5.93333 4.75 5.4 4.75C4.98889 4.75 4.57778 4.78889 4.16667 4.86667C3.76667 4.93333 3.37778 5.05 3 5.21667V12.75C3.38889 12.6056 3.78333 12.5056 4.18333 12.45C4.58333 12.3833 4.98889 12.35 5.4 12.35ZM9.6 13.05C10.0778 12.8278 10.5667 12.6556 11.0667 12.5333C11.5667 12.4111 12.0778 12.35 12.6 12.35C13.0111 12.35 13.4167 12.3778 13.8167 12.4333C14.2278 12.4778 14.6222 12.5833 15 12.75V5.21667C14.6111 5.07222 14.2167 4.96111 13.8167 4.88333C13.4167 4.79444 13.0111 4.75 12.6 4.75C12.0667 4.75 11.55 4.81111 11.05 4.93333C10.55 5.05555 10.0667 5.23889 9.6 5.48333V13.05ZM9.01667 14.9C8.46111 14.5444 7.88333 14.25 7.28333 14.0167C6.68333 13.7833 6.05556 13.6667 5.4 13.6667C4.98889 13.6667 4.57222 13.7111 4.15 13.8C3.73889 13.8778 3.34444 14 2.96667 14.1667C2.66667 14.2889 2.37778 14.2667 2.1 14.1C1.82222 13.9333 1.68333 13.6833 1.68333 13.35V4.98333C1.68333 4.78333 1.72778 4.60555 1.81667 4.45C1.91667 4.28333 2.05556 4.15555 2.23333 4.06667C2.73333 3.85555 3.24444 3.69444 3.76667 3.58333C4.3 3.47222 4.83889 3.41667 5.38333 3.41667C6.02778 3.41667 6.65 3.49444 7.25 3.65C7.86111 3.79444 8.44444 4.02222 9 4.33333C9.56667 4.04444 10.15 3.82222 10.75 3.66667C11.35 3.5 11.9722 3.41667 12.6167 3.41667C13.1611 3.41667 13.6944 3.47222 14.2167 3.58333C14.75 3.69444 15.2667 3.85555 15.7667 4.06667C15.9444 4.15555 16.0833 4.28333 16.1833 4.45C16.2833 4.60555 16.3333 4.78333 16.3333 4.98333V13.4167C16.3333 13.7278 16.2278 13.9722 16.0167 14.15C15.8167 14.3167 15.6 14.3444 15.3667 14.2333C14.9333 14.0333 14.4833 13.8889 14.0167 13.8C13.55 13.7111 13.0778 13.6667 12.6 13.6667C11.9444 13.6667 11.3167 13.7833 10.7167 14.0167C10.1278 14.25 9.56111 14.5444 9.01667 14.9Z" fill="#4285F4"/>
</g>
<defs>
<clipPath id="clip0_5408_123956">
<rect width="18" height="18" fill="white"/>
</clipPath>
</defs>
</svg>
