<svg xmlns="http://www.w3.org/2000/svg" width="18" height="18" viewBox="0 0 18 18" fill="none">
<g opacity="1" clip-path="url(#clip0_5015_29811)">
<path fill-rule="evenodd" clip-rule="evenodd" d="M16.4762 8.2222L13.3323 2.7778C13.0546 2.29666 12.5413 2.00019 11.9857 2H5.69891C5.14336 2.00019 4.63007 2.29666 4.35231 2.7778L1.20841 8.2222C0.930529 8.70347 0.930529 9.29643 1.20841 9.7777L4.35231 15.2222C4.63007 15.7033 5.14336 15.9998 5.69891 16H11.9856C12.5413 16 13.0549 15.7035 13.3327 15.2222L16.4761 9.7777C16.754 9.29645 16.7541 8.70349 16.4762 8.2222ZM11.1517 13H6.53291L4.22351 9L6.53291 5H11.1517L13.4611 9L11.1517 13ZM8.84231 7C7.73774 7 6.84231 7.89543 6.84231 9C6.84231 10.1046 7.73774 11 8.84231 11C9.94688 11 10.8423 10.1046 10.8423 9C10.8423 7.89543 9.94688 7 8.84231 7Z" fill="#4285f4" fill-opacity="1"/>
</g>
<defs fill="#4285f4">
<clipPath id="clip0_5015_29811" fill="#4285f4">
<rect width="18" height="18" fill="white"/>
</clipPath>
</defs>
</svg>