<svg xmlns="http://www.w3.org/2000/svg" width="18" height="18" viewBox="0 0 18 18" fill="none">
<path fill-rule="evenodd" clip-rule="evenodd" d="M11.1801 9.7468L15.6821 14.2498L14.2681 15.6638L9.76806 11.1638C8.73631 11.85 7.48654 12.1286 6.26102 11.9457C5.03551 11.7628 3.92157 11.1313 3.13517 10.1738C2.34878 9.21621 1.94595 8.00076 2.00479 6.76307C2.06363 5.52537 2.57994 4.35362 3.45363 3.47497C4.32732 2.59633 5.49613 2.0734 6.73347 2.00756C7.97081 1.94172 9.18852 2.33766 10.1505 3.11863C11.1125 3.89959 11.7503 5.00994 11.9401 6.2344C12.13 7.45886 11.8584 8.71019 11.1781 9.7458L11.1801 9.7468ZM7.00006 9.9998C7.39402 9.9998 7.78413 9.92221 8.14811 9.77144C8.51209 9.62068 8.8428 9.3997 9.12138 9.12112C9.39995 8.84255 9.62093 8.51183 9.7717 8.14785C9.92246 7.78388 10.0001 7.39377 10.0001 6.9998C10.0001 6.60584 9.92246 6.21573 9.7717 5.85175C9.62093 5.48778 9.39995 5.15706 9.12138 4.87848C8.8428 4.59991 8.51209 4.37893 8.14811 4.22816C7.78413 4.0774 7.39402 3.9998 7.00006 3.9998C6.20441 3.9998 5.44135 4.31587 4.87874 4.87848C4.31613 5.44109 4.00006 6.20415 4.00006 6.9998C4.00006 7.79545 4.31613 8.55851 4.87874 9.12112C5.44135 9.68373 6.20441 9.9998 7.00006 9.9998Z" fill="#4285f4"/>
</svg>