<svg xmlns="http://www.w3.org/2000/svg" width="18" height="18" viewBox="0 0 18 18" fill="none">
<g opacity="1" clip-path="url(#clip0_5015_29823)">
<path d="M4.10625 13.8937C3.66875 13.3437 3.325 12.7312 3.075 12.0562C2.825 11.3812 2.7 10.6625 2.7 9.9C2.7 8.15 3.3125 6.6625 4.5375 5.4375C5.7625 4.2125 7.25 3.6 9 3.6C9.025 3.6 9.04375 3.6 9.05625 3.6C9.06875 3.6 9.0875 3.6 9.1125 3.6L8.04375 2.53125L9 1.575L11.7 4.275L9 6.975L8.04375 6.01875L9.1125 4.95C9.0875 4.95 9.06875 4.95 9.05625 4.95C9.04375 4.95 9.025 4.95 9 4.95C7.625 4.95 6.45625 5.43125 5.49375 6.39375C4.53125 7.35625 4.05 8.525 4.05 9.9C4.05 10.4625 4.1375 11 4.3125 11.5125C4.5 12.025 4.75625 12.4937 5.08125 12.9187L4.10625 13.8937ZM8.325 13.5C8.325 13.2375 8.2375 12.9812 8.0625 12.7312C7.8875 12.4687 7.69375 12.2062 7.48125 11.9437C7.28125 11.6687 7.09375 11.3812 6.91875 11.0812C6.74375 10.7812 6.65625 10.4625 6.65625 10.125C6.65625 9.45 6.875 8.9 7.3125 8.475C7.7625 8.05 8.325 7.8375 9 7.8375C9.675 7.8375 10.2313 8.05 10.6688 8.475C11.1188 8.9 11.3438 9.45 11.3438 10.125C11.3438 10.4625 11.2563 10.7812 11.0813 11.0812C10.9063 11.3812 10.7125 11.6687 10.5 11.9437C10.3 12.2062 10.1125 12.4687 9.9375 12.7312C9.7625 12.9812 9.675 13.2375 9.675 13.5H8.325ZM8.325 15.3V14.4H9.675V15.3H8.325ZM13.875 13.875L12.9188 12.9187C13.2438 12.4937 13.4938 12.0312 13.6688 11.5312C13.8563 11.0187 13.95 10.475 13.95 9.9C13.95 9.1625 13.8 8.48125 13.5 7.85625C13.2125 7.21875 12.8125 6.675 12.3 6.225L13.2563 5.26875C13.8938 5.84375 14.3938 6.53125 14.7563 7.33125C15.1188 8.11875 15.3 8.975 15.3 9.9C15.3 10.6625 15.175 11.3812 14.925 12.0562C14.675 12.7187 14.325 13.325 13.875 13.875Z" fill="#4285f4"/>
</g>
<defs fill="#4285f4">
<clipPath id="clip0_5015_29823" fill="#4285f4">
<rect width="18" height="18" fill="white"/>
</clipPath>
</defs>
</svg>