<svg width="24" height="24" viewBox="0 0 24 24" fill="none" xmlns="http://www.w3.org/2000/svg">
<path d="M21 7C21 9.21 16.97 11 12 11C7.03 11 3 9.21 3 7C3 4.79 7.03 3 12 3C16.97 3 21 4.79 21 7ZM20.55 10.75C20.42 10.93 20.25 11.1 20.06 11.27C18.59 12.59 15.54 13.5 12 13.5C8.46 13.5 5.41 12.59 3.94 11.27C3.75 11.1 3.59 10.93 3.45 10.75C3.16 10.36 3 9.94 3 9.5V12C3 14.21 7.03 16 12 16C16.97 16 21 14.21 21 12V9.5C21 9.94 20.84 10.36 20.55 10.75ZM20.55 15.75C20.42 15.93 20.25 16.1 20.06 16.27C18.59 17.59 15.54 18.5 12 18.5C8.46 18.5 5.41 17.59 3.94 16.27C3.75 16.1 3.59 15.93 3.45 15.75C3.16 15.36 3 14.94 3 14.5V17C3 19.21 7.03 21 12 21C16.97 21 21 19.21 21 17V14.5C21 14.94 20.84 15.36 20.55 15.75Z" fill="#4285F4"/>
</svg>