<svg width="14" height="12" viewBox="0 0 14 12" fill="none" xmlns="http://www.w3.org/2000/svg">
<path d="M1.66634 11.3327C1.29967 11.3327 0.985786 11.2021 0.724674 10.941C0.463563 10.6799 0.333008 10.366 0.333008 9.99935V1.99935C0.333008 1.63268 0.463563 1.31879 0.724674 1.05768C0.985786 0.796571 1.29967 0.666016 1.66634 0.666016H12.333C12.6997 0.666016 13.0136 0.796571 13.2747 1.05768C13.5358 1.31879 13.6663 1.63268 13.6663 1.99935V9.99935C13.6663 10.366 13.5358 10.6799 13.2747 10.941C13.0136 11.2021 12.6997 11.3327 12.333 11.3327H1.66634ZM1.66634 9.99935H12.333V1.99935H1.66634V9.99935ZM6.33301 6.66602H11.6663V2.66602H6.33301V6.66602ZM7.66634 5.33268V3.99935H10.333V5.33268H7.66634Z" fill="#575757"/>
</svg>
