<svg width="24" height="24" viewBox="0 0 24 24" fill="none" xmlns="http://www.w3.org/2000/svg">
<path opacity="0.5" fill-rule="evenodd" clip-rule="evenodd" d="M5.67578 10.5938V13.7496C6.1732 14.6071 6.87894 15.3252 7.72767 15.8375V10.5938H5.67578Z" fill="#FFB246"/>
<path fill-rule="evenodd" clip-rule="evenodd" d="M9.4668 7.69336V16.7289C9.90843 16.7852 10.3536 16.8093 10.7987 16.8009C11.1983 16.8259 11.5991 16.8259 11.9987 16.8009V7.69336H9.4668Z" fill="#FFB246"/>
<path opacity="0.5" fill-rule="evenodd" clip-rule="evenodd" d="M13.9668 11.8301V15.7779C14.8201 15.2336 15.5218 14.4823 16.0067 13.594V11.8301H13.9668Z" fill="#FFB246"/>
<path fill-rule="evenodd" clip-rule="evenodd" d="M18.8864 17.1825L17.1825 18.8864C17.1346 18.9333 17.0966 18.9894 17.0706 19.0512C17.0446 19.113 17.0313 19.1794 17.0312 19.2464C17.0313 19.3134 17.0446 19.3798 17.0706 19.4416C17.0966 19.5034 17.1346 19.5595 17.1825 19.6064L21.4303 23.8541C21.5246 23.9472 21.6518 23.9994 21.7843 23.9994C21.9168 23.9994 22.0439 23.9472 22.1382 23.8541L23.8541 22.1382C23.9472 22.0439 23.9994 21.9168 23.9994 21.7843C23.9994 21.6518 23.9472 21.5246 23.8541 21.4303L19.6064 17.1825C19.5595 17.1346 19.5034 17.0966 19.4416 17.0706C19.3798 17.0446 19.3134 17.0313 19.2464 17.0312C19.1794 17.0313 19.113 17.0446 19.0512 17.0706C18.9894 17.0966 18.9333 17.1346 18.8864 17.1825Z" fill="#E19428"/>
<path fill-rule="evenodd" clip-rule="evenodd" d="M10.7994 0C8.66348 0 6.57553 0.633374 4.79958 1.82003C3.02363 3.00668 1.63944 4.69332 0.82206 6.66665C0.00467916 8.63998 -0.209185 10.8114 0.207512 12.9063C0.624209 15.0011 1.65275 16.9254 3.16308 18.4357C4.6734 19.946 6.59767 20.9746 8.69255 21.3913C10.7874 21.808 12.9588 21.5941 14.9322 20.7767C16.9055 19.9594 18.5921 18.5752 19.7788 16.7992C20.9654 15.0233 21.5988 12.9353 21.5988 10.7994C21.5988 9.3812 21.3195 7.97689 20.7767 6.66665C20.234 5.3564 19.4385 4.16589 18.4357 3.16307C17.4329 2.16025 16.2424 1.36478 14.9322 0.822055C13.6219 0.279335 12.2176 0 10.7994 0ZM10.7994 18.827C9.2151 18.8246 7.66703 18.3528 6.35072 17.4711C5.03441 16.5894 4.0089 15.3374 3.40371 13.8733C2.79852 12.4091 2.6408 10.7985 2.95046 9.24471C3.26013 7.69096 4.02329 6.26383 5.14356 5.14355C6.26383 4.02328 7.69096 3.26012 9.24471 2.95046C10.7985 2.64079 12.4091 2.79852 13.8733 3.40371C15.3374 4.0089 16.5894 5.03441 17.4711 6.35072C18.3528 7.66703 18.8246 9.2151 18.827 10.7994C18.8285 11.854 18.622 12.8986 18.2191 13.8733C17.8162 14.8479 17.225 15.7335 16.4793 16.4793C15.7335 17.225 14.8479 17.8162 13.8733 18.2191C12.8986 18.622 11.854 18.8285 10.7994 18.827Z" fill="#FFB246"/>
</svg>
