<svg xmlns="http://www.w3.org/2000/svg" width="18" height="18" viewBox="0 0 18 18" fill="none">
<g opacity="1" clip-path="url(#clip0_5015_29844)">
<path d="M11.7833 15.9333C11.4389 15.9333 11.1444 15.8111 10.9 15.5667C10.6556 15.3222 10.5333 15.0278 10.5333 14.6833C10.5333 14.4611 10.5833 14.2556 10.6833 14.0667C10.7944 13.8778 10.9444 13.7278 11.1333 13.6167V10.6167C10.9444 10.5167 10.7944 10.3722 10.6833 10.1833C10.5833 9.99444 10.5333 9.78889 10.5333 9.56667C10.5333 9.22222 10.6556 8.92778 10.9 8.68333C11.1444 8.42778 11.4389 8.3 11.7833 8.3C12.1278 8.3 12.4222 8.42778 12.6667 8.68333C12.9111 8.92778 13.0333 9.22222 13.0333 9.56667C13.0333 9.78889 12.9778 9.99444 12.8667 10.1833C12.7667 10.3722 12.6222 10.5167 12.4333 10.6167V11.85L14.8333 11.3167V10.6333C14.6444 10.5222 14.4944 10.3722 14.3833 10.1833C14.2833 9.99444 14.2333 9.78889 14.2333 9.56667C14.2333 9.22222 14.3556 8.92778 14.6 8.68333C14.8444 8.42778 15.1389 8.3 15.4833 8.3C15.8278 8.3 16.1222 8.42778 16.3667 8.68333C16.6111 8.92778 16.7333 9.22222 16.7333 9.56667C16.7333 9.78889 16.6778 9.99444 16.5667 10.1833C16.4667 10.3722 16.3222 10.5167 16.1333 10.6167V12.35L12.4333 13.1833V13.6167C12.6222 13.7278 12.7667 13.8778 12.8667 14.0667C12.9778 14.2556 13.0333 14.4611 13.0333 14.6833C13.0333 15.0278 12.9111 15.3222 12.6667 15.5667C12.4222 15.8111 12.1278 15.9333 11.7833 15.9333ZM3.85 13.9333V12.55V5.45V7.1C3.85 7.1 3.85 7.34444 3.85 7.83333C3.85 8.31111 3.85 8.88333 3.85 9.55C3.85 9.86111 3.85 10.1556 3.85 10.4333C3.85 10.7 3.85 10.9444 3.85 11.1667V13.0667C3.85 13.2111 3.85 13.35 3.85 13.4833C3.85 13.6167 3.85 13.7667 3.85 13.9333ZM3.85 13.9333C3.47222 13.9333 3.14444 13.8 2.86667 13.5333C2.6 13.2556 2.46667 12.9278 2.46667 12.55V5.45C2.46667 5.06111 2.6 4.73333 2.86667 4.46667C3.14444 4.2 3.47222 4.06667 3.85 4.06667H7.33333L9 5.71667H14.15C14.5389 5.71667 14.8667 5.85556 15.1333 6.13333C15.4 6.4 15.5333 6.72222 15.5333 7.1H8.41667L6.76667 5.45H3.85V12.55H9.73333V13.9333H3.85Z" fill="#4285f4"/>
</g>
<defs fill="#4285f4">
<clipPath id="clip0_5015_29844" fill="#4285f4">
<rect width="18" height="18" fill="white"/>
</clipPath>
</defs>
</svg>