<svg width="24" height="24" viewBox="0 0 24 24" fill="none" xmlns="http://www.w3.org/2000/svg">
<g clip-path="url(#clip0_5015_17542)">
<path d="M20 21C19.7377 20.9989 19.4863 20.8947 19.3 20.71L17.3 18.71C17.1362 18.5187 17.0506 18.2726 17.0603 18.0209C17.07 17.7693 17.1743 17.5305 17.3524 17.3524C17.5305 17.1743 17.7693 17.07 18.0209 17.0603C18.2726 17.0506 18.5187 17.1362 18.71 17.3L20.71 19.3C20.8962 19.4874 21.0008 19.7408 21.0008 20.005C21.0008 20.2692 20.8962 20.5226 20.71 20.71C20.6166 20.8027 20.5057 20.876 20.3839 20.9258C20.2621 20.9755 20.1316 21.0008 20 21Z" fill="#669DF6"/>
<path d="M3.99999 21C3.80222 20.9992 3.60913 20.9397 3.44515 20.8292C3.28116 20.7186 3.15365 20.5619 3.07872 20.3789C3.00379 20.1958 2.98483 19.9947 3.02421 19.8009C3.0636 19.6071 3.15957 19.4293 3.29999 19.29L5.29999 17.29C5.39295 17.1963 5.50355 17.1219 5.62541 17.0711C5.74727 17.0203 5.87798 16.9942 6.00999 16.9942C6.142 16.9942 6.27271 17.0203 6.39457 17.0711C6.51642 17.1219 6.62703 17.1963 6.71999 17.29C6.90624 17.4774 7.01078 17.7308 7.01078 17.995C7.01078 18.2592 6.90624 18.5126 6.71999 18.7L4.71999 20.7C4.6262 20.7957 4.51413 20.8716 4.39044 20.9231C4.26676 20.9746 4.13398 21.0008 3.99999 21Z" fill="#669DF6"/>
<path d="M5.47 17.13L4.25 18.35C4.68004 18.8617 5.15529 19.3336 5.67 19.76L6.89 18.54L5.47 17.13Z" fill="#4285F4"/>
<path d="M19.73 18.31L18.73 17.31C18.6599 17.2478 18.5827 17.1941 18.5 17.15L17.16 18.49C17.2041 18.5727 17.2578 18.6499 17.32 18.72L18.32 19.72C18.8312 19.2931 19.3031 18.8212 19.73 18.31Z" fill="#4285F4"/>
<path d="M12 21C10.22 21 8.47991 20.4722 6.99987 19.4832C5.51983 18.4943 4.36628 17.0887 3.68509 15.4442C3.0039 13.7996 2.82567 11.99 3.17294 10.2442C3.5202 8.49836 4.37737 6.89472 5.63604 5.63604C6.89472 4.37737 8.49836 3.5202 10.2442 3.17294C11.99 2.82567 13.7996 3.0039 15.4442 3.68509C17.0887 4.36628 18.4943 5.51983 19.4832 6.99987C20.4722 8.47991 21 10.22 21 12C21 14.387 20.0518 16.6761 18.364 18.364C16.6761 20.0518 14.387 21 12 21ZM12 19C13.3845 19 14.7379 18.5895 15.889 17.8203C17.0401 17.0511 17.9373 15.9579 18.4672 14.6788C18.997 13.3997 19.1356 11.9922 18.8655 10.6344C18.5954 9.27651 17.9287 8.02922 16.9498 7.05026C15.9708 6.07129 14.7235 5.4046 13.3656 5.13451C12.0078 4.86441 10.6003 5.00303 9.32122 5.53285C8.04214 6.06266 6.94889 6.95987 6.17972 8.11101C5.41055 9.26216 5 10.6155 5 12C5 13.8565 5.7375 15.637 7.05026 16.9498C8.36301 18.2625 10.1435 19 12 19Z" fill="#669DF6"/>
<path d="M12 17C13.3261 17 14.5979 16.4732 15.5355 15.5355C16.4732 14.5979 17 13.3261 17 12C17 10.6739 16.4732 9.40215 15.5355 8.46447C14.5979 7.52678 13.3261 7 12 7V12L7.92001 14.91C8.38413 15.5585 8.99663 16.0866 9.70638 16.4501C10.4161 16.8137 11.2026 17.0022 12 17Z" fill="#4285F4"/>
<path d="M3.99999 6.07001C3.80136 6.07116 3.60689 6.01314 3.44137 5.90334C3.27585 5.79354 3.14678 5.63693 3.07062 5.45349C2.99445 5.27005 2.97464 5.06807 3.01371 4.87333C3.05278 4.67858 3.14896 4.49988 3.28999 4.36001L5.28999 2.36001C5.38295 2.26628 5.49355 2.19188 5.61541 2.14112C5.73727 2.09035 5.86797 2.06421 5.99999 2.06421C6.132 2.06421 6.2627 2.09035 6.38456 2.14112C6.50642 2.19188 6.61702 2.26628 6.70999 2.36001C6.89624 2.54737 7.00078 2.80082 7.00078 3.06501C7.00078 3.32919 6.89624 3.58264 6.70999 3.77001L4.70999 5.77001C4.61737 5.8645 4.50693 5.93967 4.38505 5.99116C4.26318 6.04266 4.13229 6.06946 3.99999 6.07001Z" fill="#AECBFA"/>
<path d="M20 6.07001C19.8677 6.06946 19.7368 6.04266 19.6149 5.99116C19.4931 5.93967 19.3826 5.8645 19.29 5.77001L17.29 3.77001C17.1037 3.58264 16.9992 3.32919 16.9992 3.06501C16.9992 2.80082 17.1037 2.54737 17.29 2.36001C17.383 2.26628 17.4936 2.19188 17.6154 2.14112C17.7373 2.09035 17.868 2.06421 18 2.06421C18.132 2.06421 18.2627 2.09035 18.3846 2.14112C18.5064 2.19188 18.617 2.26628 18.71 2.36001L20.71 4.36001C20.851 4.49988 20.9472 4.67858 20.9863 4.87333C21.0254 5.06807 21.0055 5.27005 20.9294 5.45349C20.8532 5.63693 20.7241 5.79354 20.5586 5.90334C20.3931 6.01314 20.1986 6.07116 20 6.07001Z" fill="#AECBFA"/>
</g>
<defs>
<clipPath id="clip0_5015_17542">
<rect width="24" height="24" fill="white"/>
</clipPath>
</defs>
</svg>
