<svg width="14" height="14" viewBox="0 0 14 14" fill="none" xmlns="http://www.w3.org/2000/svg">
<path d="M12.1368 12.1373V9.44895H1.86285V12.1373H12.1368ZM12.1368 8.42155V5.57909H1.86285V8.42155H12.1368ZM12.1368 4.55169V1.86333H1.86285V4.55169H12.1368ZM1.86285 13.1647C1.58887 13.1647 1.34915 13.062 1.14367 12.8565C0.938189 12.651 0.835449 12.4113 0.835449 12.1373V1.86333C0.835449 1.58936 0.938189 1.34964 1.14367 1.14416C1.34915 0.938677 1.58887 0.835938 1.86285 0.835938H12.1368C12.4108 0.835938 12.6505 0.938677 12.856 1.14416C13.0615 1.34964 13.1642 1.58936 13.1642 1.86333V12.1373C13.1642 12.4113 13.0615 12.651 12.856 12.8565C12.6505 13.062 12.4108 13.1647 12.1368 13.1647H1.86285Z" fill="#0E4DCA"/>
</svg>
