<svg width="8" height="6" viewBox="0 0 8 6" fill="none" xmlns="http://www.w3.org/2000/svg">
<path d="M2.76783 6C2.69499 6 2.62418 5.98543 2.55539 5.9563C2.4866 5.92716 2.42387 5.88346 2.36722 5.82519L0.169954 3.56512C0.0566514 3.44858 0 3.30706 0 3.14057C0 2.97409 0.0566514 2.83257 0.169954 2.71603C0.283257 2.59949 0.418816 2.54122 0.576631 2.54122C0.734446 2.54122 0.874052 2.59949 0.995448 2.71603L2.76783 4.53907L7.01669 0.181257C7.12999 0.0647152 7.26555 0.00436359 7.42337 0.000201397C7.58118 -0.00396079 7.71674 0.0563908 7.83005 0.181257C7.94335 0.297798 8 0.439313 8 0.6058C8 0.772288 7.94335 0.913802 7.83005 1.03034L3.16844 5.82519C3.11179 5.88346 3.04906 5.92716 2.98027 5.9563C2.91148 5.98543 2.84067 6 2.76783 6Z" fill="white"/>
</svg>
