<svg width="16" height="16" viewBox="0 0 16 16" fill="none" xmlns="http://www.w3.org/2000/svg">
<path d="M13.1368 13.1373V10.449H2.86285V13.1373H13.1368ZM13.1368 9.42155V6.57909H2.86285V9.42155H13.1368ZM13.1368 5.55169V2.86333H2.86285V5.55169H13.1368ZM2.86285 14.1647C2.58887 14.1647 2.34915 14.062 2.14367 13.8565C1.93819 13.651 1.83545 13.4113 1.83545 13.1373V2.86333C1.83545 2.58936 1.93819 2.34964 2.14367 2.14416C2.34915 1.93868 2.58887 1.83594 2.86285 1.83594H13.1368C13.4108 1.83594 13.6505 1.93868 13.856 2.14416C14.0615 2.34964 14.1642 2.58936 14.1642 2.86333V13.1373C14.1642 13.4113 14.0615 13.651 13.856 13.8565C13.6505 14.062 13.4108 14.1647 13.1368 14.1647H2.86285Z" fill="#575757"/>
<rect x="5" y="2" width="1" height="12" fill="#575757"/>
</svg>
