<svg width="18" height="18" viewBox="0 0 18 18" fill="none" xmlns="http://www.w3.org/2000/svg">
<g opacity="1" clip-path="url(#clip0_5015_29829)">
<path d="M4.05 15.3C3.6375 15.3 3.30625 15.1812 3.05625 14.9437C2.81875 14.6937 2.7 14.3625 2.7 13.95V4.05C2.7 3.6375 2.81875 3.3125 3.05625 3.075C3.30625 2.825 3.6375 2.7 4.05 2.7H13.95C14.3625 2.7 14.6875 2.825 14.925 3.075C15.175 3.3125 15.3 3.6375 15.3 4.05V13.95C15.3 14.3625 15.175 14.6937 14.925 14.9437C14.6875 15.1812 14.3625 15.3 13.95 15.3H4.05ZM8.325 11.025H4.05V13.95H8.325V11.025ZM9.675 11.025V13.95H13.95V11.025H9.675ZM8.325 9.675V6.75H4.05V9.675H8.325ZM9.675 9.675H13.95V6.75H9.675V9.675ZM4.05 5.4H13.95V4.05H4.05V5.4Z" fill="#4285F4"/>
</g>
<defs>
<clipPath id="clip0_5015_29829">
<rect width="18" height="18" fill="white"/>
</clipPath>
</defs>
</svg>
