<svg width="20" height="20" viewBox="0 0 20 20" fill="none" xmlns="http://www.w3.org/2000/svg">
<path d="M16.6667 11.5748C16.5674 11.4555 16.4282 11.3763 16.275 11.3518C16.1218 11.3273 15.9649 11.3591 15.8333 11.4414L10 15.7248V15.9081C10.0842 15.8981 10.1695 15.9061 10.2503 15.9315C10.3312 15.9569 10.4058 15.9991 10.4691 16.0554C10.5325 16.1117 10.5832 16.1808 10.6179 16.2581C10.6526 16.3354 10.6706 16.4192 10.6706 16.5039C10.6706 16.5887 10.6526 16.6725 10.6179 16.7498C10.5832 16.8271 10.5325 16.8962 10.4691 16.9524C10.4058 17.0087 10.3312 17.051 10.2503 17.0764C10.1695 17.1017 10.0842 17.1097 10 17.0998C10.1353 17.1004 10.2671 17.0564 10.375 16.9748L16.55 12.4164C16.6703 12.3155 16.7489 12.1736 16.7704 12.0181C16.792 11.8625 16.755 11.7045 16.6667 11.5748Z" fill="#669DF6"/>
<path d="M9.99992 17.1024C9.85403 17.0851 9.71956 17.0149 9.62198 16.9051C9.5244 16.7953 9.47051 16.6535 9.47051 16.5066C9.47051 16.3597 9.5244 16.2179 9.62198 16.108C9.71956 15.9982 9.85403 15.928 9.99992 15.9107V15.7274L4.16659 11.4441C4.03557 11.36 3.87819 11.3271 3.72448 11.3517C3.57076 11.3763 3.43149 11.4566 3.33325 11.5774C3.24539 11.7072 3.21027 11.8656 3.23504 12.0204C3.25981 12.1752 3.3426 12.3148 3.46659 12.4107L9.64159 16.9691C9.74692 17.0496 9.87568 17.0935 10.0083 17.0941L9.99992 17.1024Z" fill="#AECBFA"/>
<path d="M9.9999 15.2891C9.75762 15.2891 9.52078 15.3609 9.31933 15.4955C9.11788 15.6301 8.96087 15.8214 8.86815 16.0453C8.77543 16.2691 8.75117 16.5154 8.79844 16.753C8.84571 16.9907 8.96238 17.2089 9.1337 17.3803C9.30502 17.5516 9.52329 17.6683 9.76092 17.7155C9.99854 17.7628 10.2449 17.7385 10.4687 17.6458C10.6925 17.5531 10.8838 17.3961 11.0185 17.1946C11.1531 16.9932 11.2249 16.7563 11.2249 16.5141C11.2249 16.1892 11.0958 15.8776 10.8661 15.6479C10.6364 15.4181 10.3248 15.2891 9.9999 15.2891ZM9.9999 17.1057C9.88088 17.1057 9.76455 17.0703 9.66571 17.004C9.56687 16.9377 9.48998 16.8435 9.44482 16.7334C9.39966 16.6233 9.38828 16.5022 9.41211 16.3856C9.43595 16.269 9.49393 16.1621 9.57867 16.0785C9.66342 15.9949 9.77111 15.9385 9.88804 15.9163C10.005 15.8941 10.1259 15.9071 10.2353 15.9538C10.3448 16.0005 10.4379 16.0787 10.5029 16.1785C10.5678 16.2782 10.6016 16.3951 10.5999 16.5141C10.5999 16.5925 10.5843 16.6701 10.5541 16.7424C10.5238 16.8148 10.4795 16.8804 10.4237 16.9354C10.3678 16.9905 10.3016 17.0339 10.2289 17.0631C10.1561 17.0923 10.0783 17.1068 9.9999 17.1057Z" fill="#4285F4"/>
<path d="M5.00002 5.09382C4.83493 5.09166 4.67721 5.02512 4.56046 4.90837C4.44372 4.79163 4.37717 4.63391 4.37502 4.46882V2.90215C4.36479 2.81345 4.37344 2.72358 4.40039 2.63846C4.42734 2.55333 4.47199 2.47487 4.5314 2.40821C4.59081 2.34155 4.66365 2.28822 4.74513 2.25169C4.82661 2.21517 4.91489 2.19629 5.00418 2.19629C5.09347 2.19629 5.18176 2.21517 5.26324 2.25169C5.34472 2.28822 5.41755 2.34155 5.47697 2.40821C5.53638 2.47487 5.58103 2.55333 5.60798 2.63846C5.63493 2.72358 5.64358 2.81345 5.63335 2.90215V4.46882C5.63116 4.63534 5.56347 4.7943 5.44493 4.91127C5.32639 5.02825 5.16655 5.09383 5.00002 5.09382Z" fill="#AECBFA"/>
<path d="M4.98343 10.6378C5.33321 10.6378 5.61676 10.3542 5.61676 10.0044C5.61676 9.65465 5.33321 9.37109 4.98343 9.37109C4.63365 9.37109 4.3501 9.65465 4.3501 10.0044C4.3501 10.3542 4.63365 10.6378 4.98343 10.6378Z" fill="#AECBFA"/>
<path d="M4.98343 8.79499C5.33321 8.79499 5.61676 8.51143 5.61676 8.16165C5.61676 7.81187 5.33321 7.52832 4.98343 7.52832C4.63365 7.52832 4.3501 7.81187 4.3501 8.16165C4.3501 8.51143 4.63365 8.79499 4.98343 8.79499Z" fill="#AECBFA"/>
<path d="M4.98343 6.94635C5.33321 6.94635 5.61676 6.6628 5.61676 6.31302C5.61676 5.96324 5.33321 5.67969 4.98343 5.67969C4.63365 5.67969 4.3501 5.96324 4.3501 6.31302C4.3501 6.6628 4.63365 6.94635 4.98343 6.94635Z" fill="#AECBFA"/>
<path d="M15 6.92949C14.8335 6.9273 14.6745 6.85961 14.5575 6.74107C14.4406 6.62254 14.375 6.4627 14.375 6.29616V4.72949C14.375 4.56373 14.4408 4.40476 14.5581 4.28755C14.6753 4.17034 14.8342 4.10449 15 4.10449C15.1658 4.10449 15.3247 4.17034 15.4419 4.28755C15.5592 4.40476 15.625 4.56373 15.625 4.72949V6.29616C15.6261 6.37893 15.6108 6.4611 15.5798 6.5379C15.5489 6.61469 15.5031 6.68458 15.4449 6.7435C15.3868 6.80242 15.3175 6.8492 15.2411 6.88113C15.1647 6.91306 15.0828 6.9295 15 6.92949Z" fill="#4285F4"/>
<path d="M15.0166 10.6446C15.3664 10.6446 15.65 10.361 15.65 10.0113C15.65 9.66148 15.3664 9.37793 15.0166 9.37793C14.6669 9.37793 14.3833 9.66148 14.3833 10.0113C14.3833 10.361 14.6669 10.6446 15.0166 10.6446Z" fill="#4285F4"/>
<path d="M15.0166 8.7696C15.3664 8.7696 15.65 8.48604 15.65 8.13626C15.65 7.78648 15.3664 7.50293 15.0166 7.50293C14.6669 7.50293 14.3833 7.78648 14.3833 8.13626C14.3833 8.48604 14.6669 8.7696 15.0166 8.7696Z" fill="#4285F4"/>
<path d="M15.0166 3.53522C15.3664 3.53522 15.65 3.25167 15.65 2.90189C15.65 2.55211 15.3664 2.26855 15.0166 2.26855C14.6669 2.26855 14.3833 2.55211 14.3833 2.90189C14.3833 3.25167 14.6669 3.53522 15.0166 3.53522Z" fill="#4285F4"/>
<path d="M10 12.5001C9.83491 12.498 9.67719 12.4314 9.56045 12.3147C9.4437 12.1979 9.37716 12.0402 9.375 11.8751V10.2835C9.3928 10.1291 9.46674 9.98662 9.58275 9.88321C9.69877 9.7798 9.84876 9.72266 10.0042 9.72266C10.1596 9.72266 10.3096 9.7798 10.4256 9.88321C10.5416 9.98662 10.6155 10.1291 10.6333 10.2835V11.8585C10.6344 11.9423 10.6189 12.0256 10.5875 12.1034C10.5562 12.1812 10.5097 12.252 10.4508 12.3117C10.3919 12.3714 10.3217 12.4188 10.2443 12.4511C10.1669 12.4835 10.0839 12.5001 10 12.5001Z" fill="#669DF6"/>
<path d="M10 14.3419C10.3498 14.3419 10.6334 14.0583 10.6334 13.7085C10.6334 13.3587 10.3498 13.0752 10 13.0752C9.65025 13.0752 9.3667 13.3587 9.3667 13.7085C9.3667 14.0583 9.65025 14.3419 10 14.3419Z" fill="#669DF6"/>
<path d="M10 9.08796C10.3498 9.08796 10.6334 8.8044 10.6334 8.45462C10.6334 8.10484 10.3498 7.82129 10 7.82129C9.65025 7.82129 9.3667 8.10484 9.3667 8.45462C9.3667 8.8044 9.65025 9.08796 10 9.08796Z" fill="#669DF6"/>
<path d="M10 7.23249C10.3498 7.23249 10.6334 6.94893 10.6334 6.59915C10.6334 6.24937 10.3498 5.96582 10 5.96582C9.65025 5.96582 9.3667 6.24937 9.3667 6.59915C9.3667 6.94893 9.65025 7.23249 10 7.23249Z" fill="#669DF6"/>
<path d="M12.5 8.78522C12.3349 8.78307 12.1772 8.71652 12.0605 8.59978C11.9437 8.48303 11.8772 8.32531 11.875 8.16022V6.59356C11.8648 6.50485 11.8734 6.41499 11.9004 6.32986C11.9273 6.24474 11.972 6.16627 12.0314 6.09962C12.0908 6.03296 12.1637 5.97962 12.2451 5.9431C12.3266 5.90658 12.4149 5.8877 12.5042 5.8877C12.5935 5.8877 12.6818 5.90658 12.7632 5.9431C12.8447 5.97962 12.9176 6.03296 12.977 6.09962C13.0364 6.16627 13.081 6.24474 13.108 6.32986C13.1349 6.41499 13.1436 6.50485 13.1333 6.59356V8.16022C13.1312 8.32675 13.0635 8.4857 12.9449 8.60268C12.8264 8.71966 12.6666 8.78524 12.5 8.78522Z" fill="#4285F4"/>
<path d="M12.5083 5.37702C12.8581 5.37702 13.1417 5.09347 13.1417 4.74369C13.1417 4.3939 12.8581 4.11035 12.5083 4.11035C12.1586 4.11035 11.875 4.3939 11.875 4.74369C11.875 5.09347 12.1586 5.37702 12.5083 5.37702Z" fill="#4285F4"/>
<path d="M12.5083 12.461C12.8581 12.461 13.1417 12.1774 13.1417 11.8277C13.1417 11.4779 12.8581 11.1943 12.5083 11.1943C12.1586 11.1943 11.875 11.4779 11.875 11.8277C11.875 12.1774 12.1586 12.461 12.5083 12.461Z" fill="#4285F4"/>
<path d="M12.5083 10.6114C12.8581 10.6114 13.1417 10.3278 13.1417 9.97806C13.1417 9.62828 12.8581 9.34473 12.5083 9.34473C12.1586 9.34473 11.875 9.62828 11.875 9.97806C11.875 10.3278 12.1586 10.6114 12.5083 10.6114Z" fill="#4285F4"/>
<path d="M7.49173 12.461C7.84151 12.461 8.12507 12.1774 8.12507 11.8277C8.12507 11.4779 7.84151 11.1943 7.49173 11.1943C7.14195 11.1943 6.8584 11.4779 6.8584 11.8277C6.8584 12.1774 7.14195 12.461 7.49173 12.461Z" fill="#AECBFA"/>
<path d="M7.49173 7.23249C7.84151 7.23249 8.12507 6.94893 8.12507 6.59915C8.12507 6.24937 7.84151 5.96582 7.49173 5.96582C7.14195 5.96582 6.8584 6.24937 6.8584 6.59915C6.8584 6.94893 7.14195 7.23249 7.49173 7.23249Z" fill="#AECBFA"/>
<path d="M7.49173 5.37702C7.84151 5.37702 8.12507 5.09347 8.12507 4.74369C8.12507 4.3939 7.84151 4.11035 7.49173 4.11035C7.14195 4.11035 6.8584 4.3939 6.8584 4.74369C6.8584 5.09347 7.14195 5.37702 7.49173 5.37702Z" fill="#AECBFA"/>
<path d="M7.50003 10.6126C7.33631 10.6127 7.17889 10.5494 7.06081 10.436C6.94273 10.3226 6.87316 10.1678 6.8667 10.0042V8.4209C6.8667 8.25514 6.93255 8.09617 7.04976 7.97896C7.16697 7.86175 7.32594 7.7959 7.4917 7.7959C7.65746 7.7959 7.81643 7.86175 7.93364 7.97896C8.05085 8.09617 8.1167 8.25514 8.1167 8.4209V10.0042C8.11241 10.1657 8.0458 10.3192 7.93085 10.4326C7.81589 10.546 7.6615 10.6105 7.50003 10.6126Z" fill="#AECBFA"/>
</svg>
