<svg xmlns="http://www.w3.org/2000/svg" width="18" height="18" viewBox="0 0 18 18" fill="none">
<g opacity="1" clip-path="url(#clip0_5015_29832)">
<path d="M11.2667 8.4H13.4V6.25H11.2667V8.4ZM7.93333 8.4H10.0667V6.25H7.93333V8.4ZM4.6 8.4H6.73333V6.25H4.6V8.4ZM4.6 11.75H6.73333V9.6H4.6V11.75ZM7.93333 11.75H10.0667V9.6H7.93333V11.75ZM11.2667 11.75H13.4V9.6H11.2667V11.75ZM3.21667 11.75V6.25C3.21667 5.87222 3.35 5.55 3.61667 5.28333C3.89444 5.00555 4.22222 4.86667 4.6 4.86667H13.4C13.7778 4.86667 14.1 5.00555 14.3667 5.28333C14.6444 5.55 14.7833 5.87222 14.7833 6.25V11.75C14.7833 12.1278 14.6444 12.4556 14.3667 12.7333C14.1 13 13.7778 13.1333 13.4 13.1333H4.6C4.22222 13.1333 3.89444 13 3.61667 12.7333C3.35 12.4556 3.21667 12.1278 3.21667 11.75Z" fill="#4285f4"/>
</g>
<defs fill="#4285f4">
<clipPath id="clip0_5015_29832" fill="#4285f4">
<rect width="18" height="18" fill="#4285f4"/>
</clipPath>
</defs>
</svg>