<svg width="14" height="14" viewBox="0 0 14 14" fill="none" xmlns="http://www.w3.org/2000/svg">
<path d="M11.6839 12.8826L7.76719 8.98255C7.44496 9.23811 7.06441 9.43811 6.62552 9.58255C6.18663 9.727 5.71163 9.79922 5.20052 9.79922C3.92274 9.79922 2.83941 9.35477 1.95052 8.46589C1.06163 7.577 0.617188 6.50477 0.617188 5.24922C0.617188 3.99366 1.06163 2.92144 1.95052 2.03255C2.83941 1.14366 3.91719 0.699219 5.18385 0.699219C6.43941 0.699219 7.50885 1.14366 8.39219 2.03255C9.27552 2.92144 9.71719 3.99366 9.71719 5.24922C9.71719 5.74922 9.64774 6.21311 9.50885 6.64089C9.36997 7.06866 9.16163 7.47144 8.88385 7.84922L12.8339 11.7659C12.9894 11.9214 13.0644 12.1076 13.0589 12.3242C13.0533 12.5409 12.9727 12.727 12.8172 12.8826C12.6616 13.0492 12.4727 13.1326 12.2505 13.1326C12.0283 13.1326 11.8394 13.0492 11.6839 12.8826ZM5.18385 8.23255C6.01719 8.23255 6.71997 7.94089 7.29219 7.35755C7.86441 6.77422 8.15052 6.07144 8.15052 5.24922C8.15052 4.41589 7.86441 3.71033 7.29219 3.13255C6.71997 2.55477 6.01719 2.26589 5.18385 2.26589C4.35052 2.26589 3.64219 2.55477 3.05885 3.13255C2.47552 3.71033 2.18385 4.41589 2.18385 5.24922C2.18385 6.07144 2.47552 6.77422 3.05885 7.35755C3.64219 7.94089 4.35052 8.23255 5.18385 8.23255ZM3.96719 5.73255C3.83385 5.73255 3.71997 5.68255 3.62552 5.58255C3.53108 5.48255 3.48385 5.36033 3.48385 5.21589C3.48385 5.08255 3.53108 4.96866 3.62552 4.87422C3.71997 4.77977 3.83941 4.73255 3.98385 4.73255H6.35052C6.48385 4.73255 6.59774 4.78255 6.69219 4.88255C6.78663 4.98255 6.83385 5.09922 6.83385 5.23255C6.83385 5.377 6.78663 5.49644 6.69219 5.59089C6.59774 5.68533 6.4783 5.73255 6.33385 5.73255H3.96719Z" fill="#575757"/>
</svg>
