<svg width="24" height="24" viewBox="0 0 24 24" fill="none" xmlns="http://www.w3.org/2000/svg">
<path d="M10.53 11.68L7.93 10.11C7.96884 9.99698 7.99238 9.87927 8 9.76C8.00198 9.4882 7.92306 9.22195 7.77329 8.99513C7.62351 8.76831 7.40966 8.59117 7.15892 8.48624C6.90818 8.38131 6.63189 8.35333 6.36521 8.40588C6.09853 8.45842 5.8535 8.5891 5.6613 8.7813C5.46911 8.9735 5.33842 9.21852 5.28588 9.48521C5.23334 9.75189 5.26131 10.0282 5.36624 10.2789C5.47117 10.5296 5.64831 10.7435 5.87513 10.8933C6.10196 11.0431 6.3682 11.122 6.64 11.12C6.9831 11.1209 7.31308 10.9882 7.56 10.75L10.17 12.32C10.2256 12.3591 10.292 12.3801 10.36 12.38C10.4409 12.3769 10.5187 12.3481 10.5821 12.2977C10.6454 12.2473 10.691 12.1779 10.7122 12.0998C10.7334 12.0217 10.7291 11.9388 10.7 11.8633C10.6708 11.7878 10.6182 11.7236 10.55 11.68H10.53ZM6.62 10.37C6.45822 10.37 6.30307 10.3057 6.18867 10.1913C6.07427 10.0769 6.01 9.92178 6.01 9.76C6.01 9.59822 6.07427 9.44306 6.18867 9.32866C6.30307 9.21427 6.45822 9.15 6.62 9.15C6.78179 9.15 6.93694 9.21427 7.05134 9.32866C7.16574 9.44306 7.23 9.59822 7.23 9.76C7.23 9.92178 7.16574 10.0769 7.05134 10.1913C6.93694 10.3057 6.78179 10.37 6.62 10.37Z" fill="#669DF6"/>
<path d="M9.2 18.83C7.84789 18.836 6.52444 18.4404 5.39732 17.6936C4.27019 16.9467 3.3901 15.8821 2.86855 14.6346C2.347 13.3871 2.20746 12.0129 2.4676 10.686C2.72774 9.35917 3.37585 8.13938 4.32984 7.18118C5.28383 6.22298 6.50076 5.5695 7.82646 5.30353C9.15216 5.03755 10.527 5.17104 11.7768 5.6871C13.0265 6.20315 14.095 7.07854 14.8468 8.20237C15.5986 9.3262 16 10.6479 16 12C15.9948 13.8046 15.2776 15.5343 14.0044 16.8132C12.7311 18.0921 11.0046 18.8168 9.2 18.83ZM9.2 6.68001C8.14498 6.67803 7.1131 6.9892 6.23505 7.57411C5.35701 8.15902 4.6723 8.99135 4.26764 9.96568C3.86299 10.94 3.7566 12.0125 3.96194 13.0474C4.16728 14.0822 4.67511 15.0329 5.42113 15.7789C6.16715 16.5249 7.11778 17.0327 8.15263 17.2381C9.18748 17.4434 10.26 17.337 11.2343 16.9324C12.2087 16.5277 13.041 15.843 13.6259 14.965C14.2108 14.0869 14.522 13.055 14.52 12C14.5174 10.5899 13.956 9.23824 12.9589 8.24112C11.9618 7.244 10.6101 6.68265 9.2 6.68001Z" fill="#AECBFA"/>
<path d="M19.77 15.54C19.3728 15.54 18.9865 15.6699 18.67 15.91L12.91 12.61C12.9603 12.4102 12.9904 12.2058 13 12C12.9937 11.7945 12.9669 11.5902 12.92 11.39L18.68 8.08999C18.9965 8.33006 19.3828 8.46 19.78 8.45999C20.1474 8.45802 20.5061 8.34725 20.8106 8.14168C21.1152 7.9361 21.352 7.64492 21.4913 7.30488C21.6305 6.96484 21.6659 6.59118 21.593 6.23104C21.5201 5.87089 21.3422 5.54041 21.0817 5.28128C20.8212 5.02216 20.4897 4.846 20.1292 4.77504C19.7687 4.70407 19.3952 4.74149 19.0559 4.88256C18.7166 5.02362 18.4267 5.26203 18.2228 5.56768C18.0189 5.87334 17.91 6.23255 17.91 6.59999C17.9056 6.66325 17.9056 6.72674 17.91 6.78999L12.09 10.12C11.7309 9.814 11.2917 9.61725 10.8243 9.553C10.357 9.48876 9.88096 9.55971 9.45263 9.75746C9.0243 9.95521 8.66157 10.2715 8.40732 10.6689C8.15308 11.0663 8.01797 11.5282 8.01797 12C8.01797 12.4718 8.15308 12.9337 8.40732 13.3311C8.66157 13.7285 9.0243 14.0448 9.45263 14.2425C9.88096 14.4403 10.357 14.5112 10.8243 14.447C11.2917 14.3827 11.7309 14.186 12.09 13.88L17.91 17.21C17.9056 17.2733 17.9056 17.3367 17.91 17.4C17.91 17.7679 18.0191 18.1275 18.2235 18.4334C18.4279 18.7392 18.7183 18.9776 19.0582 19.1184C19.3981 19.2592 19.7721 19.296 20.1329 19.2243C20.4937 19.1525 20.8251 18.9753 21.0852 18.7152C21.3453 18.4551 21.5225 18.1237 21.5943 17.7629C21.666 17.4021 21.6292 17.0281 21.4884 16.6882C21.3476 16.3483 21.1092 16.0578 20.8034 15.8535C20.4975 15.6491 20.1379 15.54 19.77 15.54Z" fill="#4285F4"/>
</svg>
