<svg width="20" height="20" viewBox="0 0 20 20" fill="none" xmlns="http://www.w3.org/2000/svg">
<path fill-rule="evenodd" clip-rule="evenodd" d="M11.1167 10.6441V7.01074H8.88337V10.6441L5.7417 12.4607L6.85837 14.3941L10 12.5774L13.1417 14.3941L14.2584 12.4607L11.1167 10.6441Z" fill="#669DF6"/>
<path fill-rule="evenodd" clip-rule="evenodd" d="M11.1167 10.6441V7.01074H10V11.2774L6.30005 13.4274L6.85838 14.3941L10 12.5774L13.1417 14.3941L14.2584 12.4607L11.1167 10.6441Z" fill="#4285F4"/>
<path fill-rule="evenodd" clip-rule="evenodd" d="M8.87502 2.31641L7.18335 3.33307V6.44141L10 7.96641V5.37474L8.87502 4.85807V2.31641Z" fill="#AECBFA"/>
<path fill-rule="evenodd" clip-rule="evenodd" d="M11.125 4.85807L10 5.37474V7.96641L12.8167 6.44141V3.33307L11.125 2.31641V4.85807Z" fill="#669DF6"/>
<path fill-rule="evenodd" clip-rule="evenodd" d="M15.1168 14.2382L15.0501 15.3965L17.3001 16.6715L15.4834 17.6716L12.7834 16.1132L12.8751 12.9215L15.6001 11.2549L18.3334 12.8215V14.8966L16.0918 13.6049L15.1168 14.2382Z" fill="#669DF6"/>
<path fill-rule="evenodd" clip-rule="evenodd" d="M4.88341 14.2436L3.90841 13.6102L1.66675 14.9019V12.8269L4.35841 11.2686L7.08342 12.9352L7.17508 16.1269L4.51675 17.7019L2.70008 16.6769L4.95008 15.3769L4.88341 14.2436Z" fill="#669DF6"/>
<path fill-rule="evenodd" clip-rule="evenodd" d="M18.3333 14.8994L18.2917 12.8244L15.6 11.2744L12.875 12.9494L15.1167 14.2411L16.0833 13.6077L18.3333 14.8994Z" fill="#AECBFA"/>
<path fill-rule="evenodd" clip-rule="evenodd" d="M1.66675 14.8994L3.91675 13.6077L4.88341 14.2411L7.12508 12.9494L4.40008 11.2744L1.70841 12.8244L1.66675 14.8994Z" fill="#AECBFA"/>
</svg>
