<svg width="20" height="20" viewBox="0 0 20 20" fill="none" xmlns="http://www.w3.org/2000/svg">
<path d="M15.8083 8.27682C16.5999 8.27682 17.2417 7.6351 17.2417 6.84349C17.2417 6.05188 16.5999 5.41016 15.8083 5.41016C15.0167 5.41016 14.375 6.05188 14.375 6.84349C14.375 7.6351 15.0167 8.27682 15.8083 8.27682Z" fill="#669DF6"/>
<path d="M4.19163 8.27682C4.98324 8.27682 5.62497 7.6351 5.62497 6.84349C5.62497 6.05188 4.98324 5.41016 4.19163 5.41016C3.40003 5.41016 2.7583 6.05188 2.7583 6.84349C2.7583 7.6351 3.40003 8.27682 4.19163 8.27682Z" fill="#669DF6"/>
<path d="M9.99998 18.3354C10.7916 18.3354 11.4333 17.6937 11.4333 16.9021C11.4333 16.1105 10.7916 15.4688 9.99998 15.4688C9.20838 15.4688 8.56665 16.1105 8.56665 16.9021C8.56665 17.6937 9.20838 18.3354 9.99998 18.3354Z" fill="#669DF6"/>
<path d="M10.3681 9.56405L9.70557 10.7168L15.5346 14.0668L16.1971 12.914L10.3681 9.56405Z" fill="#4285F4"/>
<path d="M9.6637 9.62559L3.86133 12.9756L4.52383 14.1231L10.3262 10.7731L9.6637 9.62559Z" fill="#4285F4"/>
<path d="M10.6585 3.49023H9.3335V10.1902H10.6585V3.49023Z" fill="#4285F4"/>
<path d="M10 12.5113C11.2795 12.5113 12.3167 11.4741 12.3167 10.1946C12.3167 8.91514 11.2795 7.87793 10 7.87793C8.72056 7.87793 7.68335 8.91514 7.68335 10.1946C7.68335 11.4741 8.72056 12.5113 10 12.5113Z" fill="#AECBFA"/>
<path d="M4.1917 15.3688C5.19962 15.3688 6.0167 14.5517 6.0167 13.5437C6.0167 12.5358 5.19962 11.7188 4.1917 11.7188C3.18378 11.7188 2.3667 12.5358 2.3667 13.5437C2.3667 14.5517 3.18378 15.3688 4.1917 15.3688Z" fill="#AECBFA"/>
<path d="M15.8084 15.3688C16.8163 15.3688 17.6334 14.5517 17.6334 13.5437C17.6334 12.5358 16.8163 11.7188 15.8084 11.7188C14.8005 11.7188 13.9834 12.5358 13.9834 13.5437C13.9834 14.5517 14.8005 15.3688 15.8084 15.3688Z" fill="#AECBFA"/>
<path d="M10 5.31699C11.008 5.31699 11.825 4.49991 11.825 3.49199C11.825 2.48407 11.008 1.66699 10 1.66699C8.99213 1.66699 8.17505 2.48407 8.17505 3.49199C8.17505 4.49991 8.99213 5.31699 10 5.31699Z" fill="#AECBFA"/>
</svg>
