<svg width="16" height="16" viewBox="0 0 16 16" fill="none" xmlns="http://www.w3.org/2000/svg">
<path d="M7.33325 12.0007H8.66659V10.6673H7.33325V12.0007ZM7.99992 1.33398C4.31992 1.33398 1.33325 4.32065 1.33325 8.00065C1.33325 11.6807 4.31992 14.6673 7.99992 14.6673C11.6799 14.6673 14.6666 11.6807 14.6666 8.00065C14.6666 4.32065 11.6799 1.33398 7.99992 1.33398ZM7.99992 13.334C5.05992 13.334 2.66659 10.9407 2.66659 8.00065C2.66659 5.06065 5.05992 2.66732 7.99992 2.66732C10.9399 2.66732 13.3333 5.06065 13.3333 8.00065C13.3333 10.9407 10.9399 13.334 7.99992 13.334ZM7.99992 4.00065C6.52659 4.00065 5.33325 5.19398 5.33325 6.66732H6.66659C6.66659 5.93398 7.26659 5.33398 7.99992 5.33398C8.73325 5.33398 9.33325 5.93398 9.33325 6.66732C9.33325 8.00065 7.33325 7.83398 7.33325 10.0007H8.66659C8.66659 8.50065 10.6666 8.33398 10.6666 6.66732C10.6666 5.19398 9.47325 4.00065 7.99992 4.00065Z" fill="#1F1F1F"/>
</svg>
