<svg width="32" height="32" viewBox="0 0 32 32" fill="none" xmlns="http://www.w3.org/2000/svg">
<path d="M15.8099 1.77798C15.3579 1.77577 14.9138 1.89711 14.5258 2.1289C14.1377 2.36069 13.8204 2.69411 13.6081 3.09315C13.3957 3.49218 13.2965 3.94165 13.321 4.39299C13.3456 4.84433 13.493 5.28038 13.7474 5.65402L14.8053 4.59611C14.7739 4.48911 14.756 4.37862 14.7519 4.26718C14.7537 4.05834 14.8172 3.85468 14.9345 3.68188C15.0518 3.50908 15.2177 3.37487 15.4111 3.29616C15.6046 3.21745 15.817 3.19777 16.0216 3.23959C16.2263 3.28141 16.4139 3.38286 16.561 3.53115C16.7081 3.67945 16.8079 3.86797 16.848 4.07293C16.8881 4.2779 16.8667 4.49015 16.7864 4.68295C16.706 4.87574 16.5704 5.04044 16.3967 5.15629C16.2229 5.27215 16.0187 5.33398 15.8099 5.33398C15.6988 5.33292 15.5883 5.31799 15.4809 5.28953L14.423 6.32966C14.7458 6.54775 15.1152 6.68705 15.5016 6.73635C15.888 6.78566 16.2806 6.74359 16.6477 6.61354C17.0149 6.48349 17.3464 6.26909 17.6157 5.98757C17.8849 5.70606 18.0843 5.36529 18.1978 4.99267C18.3113 4.62006 18.3358 4.226 18.2693 3.8422C18.2028 3.45839 18.0472 3.09555 17.8149 2.78285C17.5826 2.47016 17.2802 2.21634 16.932 2.04181C16.5837 1.86728 16.1994 1.77692 15.8099 1.77798Z" fill="#D2E3FC"/>
<path d="M14.823 9.02333C14.8314 8.18816 14.5729 7.37213 14.0851 6.69415L12.6627 8.0721C12.8269 8.3622 12.9126 8.69003 12.9116 9.02333C12.9145 9.29062 12.8624 9.55565 12.7584 9.80189C12.6543 10.0481 12.5008 10.2703 12.3071 10.4546L13.0628 12.2949C13.6049 11.9388 14.0498 11.4532 14.3571 10.882C14.6645 10.3108 14.8246 9.67197 14.823 9.02333Z" fill="#5E97F6"/>
<path d="M10.9647 11.0058C10.6538 11.0127 10.3456 10.9463 10.0651 10.8121C9.78461 10.6778 9.5396 10.4795 9.34991 10.2331C9.16021 9.98662 9.03116 9.69901 8.97317 9.39348C8.91518 9.08795 8.92988 8.77306 9.01609 8.47426C9.10229 8.17546 9.25759 7.90114 9.46941 7.67345C9.68124 7.44576 9.94366 7.2711 10.2355 7.16359C10.5273 7.05607 10.8403 7.01871 11.1492 7.05453C11.4581 7.09035 11.7543 7.19834 12.0137 7.36978L13.3828 6.00961C12.6945 5.43463 11.826 5.11995 10.9292 5.12061C10.3813 5.11564 9.83854 5.22634 9.33637 5.44549C8.83421 5.66464 8.38395 5.98729 8.01503 6.39237C7.6461 6.79744 7.36681 7.27581 7.19542 7.79621C7.02403 8.31661 6.96439 8.86732 7.0204 9.41235C7.07642 9.95738 7.24682 10.4844 7.52048 10.9591C7.79413 11.4338 8.16488 11.8453 8.60848 12.1669C9.05209 12.4885 9.55856 12.7128 10.0948 12.8252C10.631 12.9377 11.185 12.9357 11.7204 12.8194L10.9647 11.0058Z" fill="#5E97F6"/>
<path d="M15.863 12.5882C15.0019 12.5881 14.1453 12.7139 13.3205 12.9616L14.4051 15.6286C14.8822 15.511 15.3717 15.4513 15.863 15.4508C17.3196 15.4508 18.7259 15.9838 19.8166 16.9492C20.9073 17.9146 21.6071 19.2458 21.784 20.6916C21.9609 22.1374 21.6027 23.598 20.7768 24.7979C19.951 25.9978 18.7147 26.8541 17.3011 27.2052C15.8874 27.5564 14.3941 27.3782 13.1028 26.7042C11.8115 26.0302 10.8115 24.9071 10.2912 23.5465C9.77098 22.186 9.76653 20.6821 10.2787 19.3185C10.7909 17.9549 11.7843 16.8258 13.0716 16.1442L11.987 13.4772C10.0397 14.4248 8.50908 16.0558 7.68698 18.0594C6.86488 20.0629 6.80874 22.2989 7.52925 24.3412C8.24977 26.3834 9.69656 28.0892 11.5939 29.1333C13.4912 30.1774 15.7064 30.4869 17.8172 30.0028C19.9281 29.5186 21.787 28.2747 23.0396 26.5081C24.2923 24.7415 24.8511 22.5758 24.6096 20.4236C24.3681 18.2715 23.3432 16.2835 21.7301 14.8385C20.117 13.3934 18.0287 12.5925 15.863 12.5882Z" fill="#4285F4"/>
</svg>
